<?xml version="1.0" encoding="utf-8"?>
<!-- Generator: Adobe Illustrator 23.0.2, SVG Export Plug-In . SVG Version: 6.00 Build 0)  -->
<svg version="1.1" id="Layer_1" xmlns="http://www.w3.org/2000/svg" xmlns:xlink="http://www.w3.org/1999/xlink" x="0px" y="0px"
	 viewBox="0 0 128 128" style="enable-background:new 0 0 128 128;" xml:space="preserve">
<style type="text/css">
	.st0{fill:#E1D9CF;}
</style>
<path id="Path_34" class="st0" d="M90.7,54.5v-19C90.7,19.7,78.7,7,64,7S37.3,19.7,37.3,35.5v19H23.9V121h80.1V54.5H90.7z
	 M68.4,91.2V102h-8.9V91.2c-2.8-1.8-4.5-4.9-4.5-8.2c0-5.2,4-9.5,8.9-9.5s8.9,4.3,8.9,9.5C72.9,86.3,71.2,89.4,68.4,91.2z
	 M46.2,54.5v-19c0-10.5,8-19,17.8-19s17.8,8.5,17.8,19v19H46.2z"/>
</svg>
