<?xml version="1.0" encoding="utf-8"?>
<!-- Generator: Adobe Illustrator 23.0.2, SVG Export Plug-In . SVG Version: 6.00 Build 0)  -->
<svg version="1.1" id="Layer_1" xmlns="http://www.w3.org/2000/svg" xmlns:xlink="http://www.w3.org/1999/xlink" x="0px" y="0px"
	 viewBox="0 0 595.3 841.9" style="enable-background:new 0 0 595.3 841.9;" xml:space="preserve">
<style type="text/css">
	.st0{fill:#E1D9CF;}
</style>
<path id="Path_34" class="st0" d="M337,408.1v-28.4c0-23.6-17.9-42.7-40-42.7c-22.1,0-40,19.1-40,42.7v28.4h-20v99.6H357v-99.6H337z
	 M303.7,463v16.2h-13.3V463c-4.2-2.7-6.7-7.3-6.7-12.3c0-7.9,6-14.2,13.3-14.2s13.3,6.4,13.3,14.2
	C310.4,455.7,307.9,460.3,303.7,463z M270.4,408.1v-28.4c0-15.7,11.9-28.4,26.6-28.4s26.6,12.8,26.6,28.4v28.4H270.4z"/>
</svg>
