<?xml version="1.0" encoding="utf-8"?>
<!-- Generator: Adobe Illustrator 23.0.2, SVG Export Plug-In . SVG Version: 6.00 Build 0)  -->
<svg version="1.1" id="Layer_1" xmlns="http://www.w3.org/2000/svg" xmlns:xlink="http://www.w3.org/1999/xlink" x="0px" y="0px"
	 viewBox="0 0 595.3 841.9" style="enable-background:new 0 0 595.3 841.9;" xml:space="preserve">
<style type="text/css">
	.st0{fill:#E1D9CF;}
</style>
<g id="Group_30" transform="translate(111.229 -509.905)">
	<path id="Path_36" class="st0" d="M42.5,968.5c-2.5,0-3.6-1.1-3.6-3.6v-11.7c0-2.5,1.1-3.6,3.6-3.6h25.8c1.6,0,2.7-0.7,2.7-2.3
		v-3.9c0-1.6-1.1-2.3-2.7-2.3H43.5c-2.5,0-3.6-1.1-3.6-3.6V900c0-2.5,1.1-3.6,3.6-3.6h43.2c2.5,0,3.6,1.1,3.6,3.6v11.9
		c0,2.5-1.1,3.6-3.6,3.6h-24v6.5h13.7c10.8,0,17.5,5.3,17.5,15.9v13.9c0,10.2-7.5,16.6-19.5,16.6L42.5,968.5z"/>
	<path id="Path_37" class="st0" d="M134.6,970c-24.6,0-30.6-8.2-30.6-20.4v-34.1c0-12.2,6-20.5,30.6-20.5s30.5,8.3,30.5,20.5v34.1
		C165.2,961.7,159.3,970,134.6,970z M134.6,950.6c6.9,0,8-2,8-4.7V919c0-2.6-1.1-4.6-8-4.6c-6.8,0-8,2-8,4.6v26.9
		C126.6,948.6,127.8,950.6,134.6,950.6z"/>
	<path id="Path_38" class="st0" d="M223.9,968.5c-16.8,0-24.6-6.5-24.6-20.4v-31.2c0-13.9,7.8-20.4,24.6-20.4h25
		c2.5,0,3.6,1.1,3.6,3.6v12.1c0,2.5-1.1,3.6-3.6,3.6h-20.8c-4.2,0-6.1,1.6-6.1,5v23.9c0,3.4,1.5,4.9,4.6,4.9h9.7v-15.6
		c0-2.5,1.1-3.6,3.6-3.6h15.5c2.5,0,3.6,1.1,3.6,3.6v30.9c0,2.5-1.1,3.6-3.6,3.6H223.9z"/>
	<path id="Path_39" class="st0" d="M274.9,968.5c-2.5,0-3.6-1.1-3.6-3.6V900c0-2.5,1.1-3.6,3.6-3.6h31.9c13.1,0,19.2,4.8,19.2,15.3
		v4.8c0,5.6-1.9,9.1-5.9,10.8c8.6,0.8,12.6,5.7,12.6,15.5v9.2c0,11.2-6.1,16.4-19.4,16.4L274.9,968.5z M293.8,924.2h8.5
		c2.6,0,3.8-1.3,3.8-4v-2.8c0-2.7-1.2-4-3.8-4h-8.5V924.2z M293.8,951.4h13c2.6,0,3.8-1.3,3.8-4v-3.9c0-2.7-1.2-3.9-3.8-3.9h-13
		V951.4z"/>
</g>
</svg>
