<?xml version="1.0" encoding="utf-8"?>
<!-- Generator: Adobe Illustrator 23.0.3, SVG Export Plug-In . SVG Version: 6.00 Build 0)  -->
<svg version="1.1" id="Layer_1" xmlns="http://www.w3.org/2000/svg" xmlns:xlink="http://www.w3.org/1999/xlink" x="0px" y="0px"
	 viewBox="0 0 128 128" style="enable-background:new 0 0 128 128;" xml:space="preserve">
<style type="text/css">
	.st0{fill:#FFFFFF;}
</style>
<g id="Group_30" transform="translate(111.229 -509.905)">
	<path id="Path_36" class="st0" d="M-106.3,588.8c-1,0-1.5-0.5-1.5-1.5v-4.8c0-1,0.5-1.5,1.5-1.5h10.6c0.7,0,1.1-0.3,1.1-0.9v-1.6
		c0-0.7-0.5-0.9-1.1-0.9h-10.2c-1,0-1.5-0.5-1.5-1.5v-15.4c0-1,0.5-1.5,1.5-1.5h17.8c1,0,1.5,0.5,1.5,1.5v4.9c0,1-0.5,1.5-1.5,1.5
		H-98v2.7h5.7c4.5,0,7.2,2.2,7.2,6.6v5.7c0,4.2-3.1,6.8-8,6.8L-106.3,588.8z"/>
	<path id="Path_37" class="st0" d="M-68.3,589.4c-10.1,0-12.6-3.4-12.6-8.4v-14.1c0-5,2.5-8.5,12.6-8.5s12.6,3.4,12.6,8.5V581
		C-55.7,586-58.2,589.4-68.3,589.4z M-68.3,581.4c2.8,0,3.3-0.8,3.3-1.9v-11.1c0-1.1-0.5-1.9-3.3-1.9s-3.3,0.8-3.3,1.9v11.1
		C-71.6,580.6-71.1,581.4-68.3,581.4z"/>
	<path id="Path_38" class="st0" d="M-31.5,588.8c-6.9,0-10.1-2.7-10.1-8.4v-12.9c0-5.7,3.2-8.4,10.1-8.4h10.3c1,0,1.5,0.5,1.5,1.5v5
		c0,1-0.5,1.5-1.5,1.5h-8.6c-1.7,0-2.5,0.7-2.5,2.1v9.9c0,1.4,0.6,2,1.9,2h4v-6.4c0-1,0.5-1.5,1.5-1.5h6.4c1,0,1.5,0.5,1.5,1.5v12.7
		c0,1-0.5,1.5-1.5,1.5L-31.5,588.8L-31.5,588.8z"/>
	<path id="Path_39" class="st0" d="M-10.5,588.8c-1,0-1.5-0.5-1.5-1.5v-26.7c0-1,0.5-1.5,1.5-1.5H2.6c5.4,0,7.9,2,7.9,6.3v2
		c0,2.3-0.8,3.8-2.4,4.5c3.5,0.3,5.2,2.4,5.2,6.4v3.8c0,4.6-2.5,6.8-8,6.8L-10.5,588.8z M-2.7,570.5h3.5c1.1,0,1.6-0.5,1.6-1.7v-1.2
		c0-1.1-0.5-1.6-1.6-1.6h-3.5C-2.7,566-2.7,570.5-2.7,570.5z M-2.7,581.7h5.4c1.1,0,1.6-0.5,1.6-1.7v-1.6c0-1.1-0.5-1.6-1.6-1.6
		h-5.4C-2.7,576.8-2.7,581.7-2.7,581.7z"/>
</g>
</svg>
