<?xml version="1.0" encoding="utf-8"?>
<!-- Generator: Adobe Illustrator 23.0.3, SVG Export Plug-In . SVG Version: 6.00 Build 0)  -->
<svg version="1.1" id="Layer_1" xmlns="http://www.w3.org/2000/svg" xmlns:xlink="http://www.w3.org/1999/xlink" x="0px" y="0px"
	 viewBox="0 0 480 480" style="enable-background:new 0 0 480 480;" xml:space="preserve">
<style type="text/css">
	.st0{fill:#3995D2;}
	.st1{fill-rule:evenodd;clip-rule:evenodd;fill:#3995D2;}
</style>
<path id="Path_44" class="st0" d="M136.4,340.8"/>
<circle id="Ellipse_6" class="st0" cx="124.3" cy="347.2" r="16.9"/>
<path id="Path_45" class="st0" d="M343.6,279.6v-0.2v-0.1"/>
<path id="Path_46" class="st0" d="M343.6,273.7L343.6,273.7"/>
<g id="Group_33" transform="translate(74.643 188.331)">
	<path id="Path_47" class="st0" d="M89.7,116.3c-0.3-0.2-0.6-0.3-0.9-0.4c-0.4-0.1-0.8-0.2-1.3-0.2c-1,0-1.9,0.4-2.6,1.1
		c-0.6,0.7-1,1.7-0.9,2.6c0,0.8,0.2,1.5,0.7,2.1s1.1,1.2,1.8,1.5c0.5,0.2,0.9,0.5,1.2,0.9c0.3,0.3,0.4,0.7,0.4,1.1s-0.1,0.8-0.4,1.1
		c-0.3,0.3-0.8,0.5-1.2,0.4c-0.4,0-0.8-0.1-1.2-0.2s-0.7-0.3-1-0.5l-0.4,2c0.3,0.2,0.7,0.4,1,0.5c0.5,0.1,1,0.2,1.4,0.2
		c1,0,2-0.3,2.7-1.1c1.1-1.4,1.3-3.3,0.4-4.9c-0.4-0.7-1.1-1.2-1.8-1.6c-0.5-0.2-0.9-0.6-1.3-0.9c-0.3-0.3-0.4-0.7-0.4-1.1
		s0.1-0.7,0.4-1c0.3-0.3,0.7-0.5,1.1-0.4c0.4,0,0.7,0.1,1.1,0.2c0.3,0.1,0.5,0.2,0.7,0.4L89.7,116.3z"/>
	<path id="Path_48" class="st0" d="M100.6,115.9l-0.8,5.4c-0.1,0.8-0.2,1.5-0.3,2.2s-0.2,1.5-0.3,2.2l0,0c-0.1-0.7-0.1-1.5-0.2-2.2
		c-0.1-0.7-0.2-1.4-0.3-2.2l-0.9-5.5h-1.9l-0.9,5.4c-0.1,0.8-0.3,1.6-0.4,2.3c-0.1,0.7-0.2,1.5-0.3,2.2l0,0
		c-0.1-0.7-0.2-1.4-0.3-2.2s-0.2-1.5-0.3-2.3l-0.8-5.5h-2.1l2.2,12.7h2.1l1-5.4c0.1-0.7,0.2-1.3,0.3-2s0.2-1.3,0.3-2.1l0,0
		c0.1,0.7,0.1,1.4,0.2,2.1s0.2,1.3,0.3,2l0.9,5.4h2.1l2.4-12.7L100.6,115.9z"/>
	<path id="Path_49" class="st0" d="M109.4,126.6h-3.7v-3.5h3.3v-2h-3.3V118h3.5v-2h-5.4v12.7h5.7L109.4,126.6z"/>
	<path id="Path_50" class="st0" d="M118.2,121.5h-3.3v1.9h1.5v3.1c-0.1,0.1-0.3,0.1-0.4,0.1c-0.2,0-0.4,0.1-0.6,0.1
		c-0.8,0-1.6-0.4-2.1-1.1c-0.6-1-0.9-2.1-0.8-3.3c-0.1-1.2,0.2-2.4,0.9-3.4c0.5-0.7,1.4-1.1,2.3-1.1c0.4,0,0.8,0,1.1,0.1
		s0.5,0.2,0.8,0.3l0.4-2c-0.3-0.2-0.6-0.3-1-0.4c-0.5-0.1-0.9-0.2-1.4-0.2c-0.9,0-1.9,0.2-2.6,0.8c-0.8,0.5-1.5,1.3-1.9,2.2
		c-0.5,1.1-0.7,2.4-0.7,3.6c0,0.9,0.1,1.9,0.4,2.8c0.2,0.7,0.5,1.4,1,2.1c0.4,0.5,0.9,0.9,1.5,1.2c0.6,0.3,1.3,0.4,2,0.4
		c0.6,0,1.1-0.1,1.6-0.2c0.4-0.1,0.8-0.2,1.2-0.4L118.2,121.5z"/>
	<path id="Path_51" class="st0" d="M124.7,115.9l-1,3.1c-0.1,0.5-0.3,0.9-0.4,1.3c-0.1,0.4-0.2,0.8-0.3,1.3l0,0
		c-0.1-0.4-0.2-0.9-0.4-1.3s-0.3-0.8-0.4-1.3l-1-3.1H119l2.9,7.5v5.2h1.9v-5.2l3-7.4L124.7,115.9z"/>
	<path id="Path_52" class="st1" d="M127.9,128.6h1.9v-4.7c0.2,0.1,0.5,0.1,0.7,0.1c0.6,0,1.1-0.1,1.7-0.3c0.6-0.3,1.1-0.7,1.5-1.3
		c0.5-0.8,0.7-1.7,0.7-2.6c0-0.5-0.1-1.1-0.3-1.6s-0.4-0.9-0.7-1.2c-0.3-0.3-0.7-0.6-1.2-0.8c-0.5-0.2-1.1-0.3-1.7-0.2
		c-0.5,0-1,0-1.5,0.1c-0.4,0-0.8,0.1-1.1,0.2L127.9,128.6z M129.8,117.8c0.1,0,0.2-0.1,0.3-0.1c0.2,0,0.3,0,0.5,0
		c0.5,0,1,0.2,1.3,0.5c0.3,0.4,0.5,1,0.5,1.5c0,0.6-0.1,1.2-0.5,1.6s-0.9,0.6-1.4,0.6c-0.1,0-0.3,0-0.4,0c-0.1,0-0.2,0-0.3-0.1
		L129.8,117.8z"/>
	<path id="Path_53" class="st1" d="M141.9,115.9H135v2.1h2.5v10.6h1.9V118h2.5V115.9z"/>
	<path id="Path_54" class="st1" d="M155.1,115.9h-2.4l-1.1,4.8c-0.2,0.8-0.3,1.5-0.5,2.3c-0.1,0.8-0.3,1.5-0.4,2.2l0,0
		c-0.1-0.7-0.2-1.5-0.4-2.2c-0.1-0.7-0.3-1.5-0.5-2.3l-1.1-4.8h-2.4l-0.7,12.7h1.8l0.2-4.9c0-0.8,0.1-1.6,0.1-2.5s0-1.7,0.1-2.5l0,0
		c0.1,0.8,0.3,1.6,0.4,2.4s0.3,1.6,0.5,2.3l1.1,5h1.5l1.2-5.1c0.2-0.7,0.3-1.5,0.5-2.3s0.3-1.6,0.5-2.3l0,0c0,0.8,0,1.6,0,2.5
		s0,1.7,0.1,2.5l0.2,4.9h1.9L155.1,115.9z"/>
	<rect id="Rectangle_119" x="157.4" y="115.9" class="st0" width="1.9" height="12.7"/>
	<path id="Path_55" class="st1" d="M168.7,115.9h-1.8v3.8c0,1,0,2,0,2.9s0.1,1.8,0.1,2.6l0,0c-0.2-0.7-0.4-1.4-0.7-2.1
		s-0.5-1.4-0.8-2.1l-2.1-5.1h-2.1v12.7h1.8v-3.9c0-1.1,0-2.1,0-3.1s0-1.8-0.1-2.5h0.1c0.2,0.7,0.5,1.4,0.7,2.2s0.5,1.4,0.8,2.1
		l2.2,5.2h1.9L168.7,115.9z"/>
	<path id="Path_56" class="st1" d="M175.3,115.9h-2.5l-2.9,12.7h2l0.7-3.3h2.7l0.7,3.3h2L175.3,115.9z M172.9,123.4l0.6-2.9
		c0.1-0.4,0.2-0.8,0.2-1.3s0.2-0.9,0.2-1.3l0,0c0.1,0.4,0.1,0.8,0.2,1.3c0.1,0.5,0.2,0.9,0.2,1.3l0.6,2.9H172.9z"/>
	<rect id="Rectangle_120" x="182.2" y="115.9" class="st0" width="1.9" height="12.7"/>
	<path id="Path_57" class="st1" d="M193.5,115.9h-1.7v3.8c0,1,0,2,0,2.9s0.1,1.8,0.1,2.6l0,0c-0.2-0.7-0.4-1.4-0.7-2.1
		s-0.5-1.4-0.8-2.1l-2.1-5.1h-2.1v12.7h1.8v-3.9c0-1.1,0-2.1,0-3.1s0-1.8-0.1-2.5h0.1c0.2,0.7,0.5,1.4,0.7,2.2s0.5,1.4,0.8,2.1
		l2.2,5.2h1.9L193.5,115.9L193.5,115.9z"/>
	<path id="Path_58" class="st1" d="M201.6,115.9h-6.9v2.1h2.5v10.6h1.9V118h2.5V115.9z"/>
	<path id="Path_59" class="st1" d="M208.5,126.6h-3.7v-3.5h3.3v-2h-3.3V118h3.5v-2h-5.5v12.7h5.7V126.6z"/>
	<path id="Path_60" class="st1" d="M214.7,122.6c0.5-0.3,0.9-0.7,1.2-1.2c0.3-0.6,0.5-1.3,0.5-2s-0.1-1.4-0.4-2
		c-0.2-0.4-0.6-0.8-1-1.1c-0.4-0.2-0.8-0.4-1.3-0.4c-0.4-0.1-0.8-0.1-1.1-0.1c-0.5,0-0.9,0-1.4,0.1c-0.4,0-0.8,0.1-1.2,0.2v12.5h1.9
		v-5.1h0.7c0.4,0,0.8,0.1,1,0.5c0.3,0.5,0.5,1.1,0.6,1.7c0.1,0.8,0.2,1.4,0.4,1.9c0.1,0.4,0.2,0.7,0.3,1.1h2
		c-0.1-0.4-0.3-0.9-0.3-1.4c-0.1-0.6-0.3-1.4-0.4-2.1c-0.1-0.6-0.3-1.1-0.5-1.6C215.4,123.1,215.1,122.8,214.7,122.6L214.7,122.6z
		 M211.9,121.7v-3.9c0.1,0,0.2-0.1,0.3-0.1c0.2,0,0.4,0,0.6,0c0.3,0,0.5,0,0.8,0.1s0.5,0.3,0.7,0.6c0.2,0.4,0.3,0.8,0.3,1.2
		c0,0.5-0.1,1-0.5,1.5c-0.3,0.4-0.8,0.6-1.3,0.6L211.9,121.7z"/>
	<path id="Path_61" class="st1" d="M225.4,115.9h-1.8v3.8c0,1,0,2,0,2.9s0.1,1.8,0.1,2.6l0,0c-0.2-0.7-0.4-1.4-0.7-2.1
		c-0.3-0.7-0.5-1.4-0.8-2.1l-2.1-5.1H218v12.7h1.8v-3.9c0-1.1,0-2.1,0-3.1s0-1.8-0.1-2.5h0.1c0.2,0.7,0.5,1.4,0.7,2.2
		c0.3,0.7,0.5,1.4,0.8,2.1l2.2,5.2h1.9V115.9z"/>
	<path id="Path_62" class="st1" d="M232,115.9h-2.4l-2.9,12.7h2l0.7-3.3h2.7l0.7,3.3h2L232,115.9z M229.6,123.4l0.6-2.9
		c0.1-0.4,0.2-0.8,0.2-1.3c0.1-0.5,0.2-0.9,0.2-1.3l0,0c0.1,0.4,0.1,0.8,0.2,1.3s0.2,0.9,0.2,1.3l0.6,2.9H229.6z"/>
	<path id="Path_63" class="st1" d="M241.9,115.9H235v2.1h2.5v10.6h1.9V118h2.5V115.9z"/>
	<rect id="Rectangle_121" x="243" y="115.9" class="st0" width="1.9" height="12.7"/>
	<path id="Path_64" class="st1" d="M250.7,115.7c-0.8,0-1.7,0.3-2.3,0.9c-0.7,0.6-1.2,1.4-1.5,2.3c-0.4,1.1-0.5,2.2-0.5,3.4
		c0,1.1,0.2,2.2,0.5,3.3c0.3,0.9,0.8,1.7,1.4,2.3c0.6,0.6,1.4,0.9,2.3,0.9c0.8,0,1.6-0.3,2.2-0.7c0.7-0.6,1.2-1.4,1.5-2.2
		c0.4-1.2,0.6-2.4,0.6-3.7c0-1.1-0.1-2.1-0.5-3.2c-0.3-0.9-0.7-1.7-1.4-2.3C252.4,116.1,251.6,115.7,250.7,115.7z M250.7,117.7
		c0.5,0,0.9,0.2,1.2,0.6c0.4,0.5,0.6,1,0.7,1.6c0.2,0.7,0.2,1.5,0.2,2.2c0,0.8-0.1,1.6-0.2,2.3c-0.1,0.6-0.4,1.2-0.7,1.6
		c-0.5,0.7-1.4,0.8-2.1,0.3c-0.1-0.1-0.2-0.2-0.3-0.3c-0.4-0.5-0.6-1-0.7-1.6c-0.2-0.7-0.3-1.5-0.3-2.3c0-0.7,0.1-1.5,0.2-2.2
		c0.1-0.6,0.4-1.2,0.7-1.7C249.7,118,250.2,117.7,250.7,117.7L250.7,117.7z"/>
	<path id="Path_65" class="st1" d="M263.8,115.9H262v3.8c0,1,0,2,0,2.9s0.1,1.8,0.1,2.6l0,0c-0.2-0.7-0.4-1.4-0.7-2.1
		c-0.3-0.7-0.5-1.4-0.8-2.1l-2.1-5.1h-2.1v12.7h1.8v-3.9c0-1.1,0-2.1,0-3.1c0-0.9,0-1.8-0.1-2.5h0.1c0.2,0.7,0.5,1.4,0.7,2.2
		s0.5,1.4,0.8,2.1l2.2,5.2h1.9V115.9z"/>
	<path id="Path_66" class="st1" d="M270.4,115.9H268l-2.9,12.7h2l0.7-3.3h2.7l0.7,3.3h2L270.4,115.9z M268,123.4l0.6-2.9
		c0.1-0.4,0.2-0.8,0.2-1.3s0.2-0.9,0.2-1.3l0,0c0.1,0.4,0.1,0.8,0.2,1.3s0.2,0.9,0.2,1.3l0.6,2.9H268z"/>
	<path id="Path_67" class="st1" d="M280.1,126.6h-3.6V116h-1.9v12.7h5.6v-2.1H280.1z"/>
	<path id="Path_68" class="st1" d="M289.6,116.3c-0.3-0.2-0.6-0.3-0.9-0.4c-0.4-0.1-0.8-0.2-1.3-0.2c-1,0-1.9,0.4-2.6,1.1
		c-0.6,0.7-1,1.7-0.9,2.6c0,0.8,0.2,1.5,0.7,2.1s1.1,1.2,1.8,1.5c0.5,0.2,0.9,0.5,1.2,0.9c0.3,0.3,0.4,0.7,0.4,1.1s-0.1,0.8-0.4,1.1
		c-0.3,0.3-0.8,0.5-1.2,0.4c-0.4,0-0.8-0.1-1.2-0.2c-0.4-0.1-0.7-0.3-1-0.5l-0.4,2c0.3,0.2,0.7,0.4,1,0.5c0.5,0.1,1,0.2,1.4,0.2
		c1,0,2-0.3,2.7-1.1c1.1-1.4,1.3-3.3,0.4-4.9c-0.4-0.7-1.1-1.2-1.8-1.6c-0.5-0.2-0.9-0.6-1.3-0.9c-0.3-0.3-0.4-0.7-0.4-1.1
		s0.1-0.7,0.4-1s0.7-0.5,1.1-0.4c0.4,0,0.7,0.1,1.1,0.2c0.3,0.1,0.5,0.2,0.7,0.4L289.6,116.3z"/>
	<path id="Path_69" class="st1" d="M296,115.9h-2.4l-2.9,12.7h2l0.7-3.3h2.7l0.7,3.3h2L296,115.9z M293.6,123.4l0.6-2.9
		c0.1-0.4,0.2-0.8,0.2-1.3s0.2-0.9,0.2-1.3l0,0c0.1,0.4,0.1,0.8,0.2,1.3s0.2,0.9,0.2,1.3l0.6,2.9H293.6z"/>
	<path id="Path_70" class="st1" d="M305.8,126.6h-3.7v-3.5h3.3v-2h-3.3V118h3.5v-2h-5.4v12.7h5.7L305.8,126.6z"/>
</g>
<circle id="Ellipse_7" class="st0" cx="104.9" cy="308.2" r="16.9"/>
<circle id="Ellipse_8" class="st0" cx="100.9" cy="266.2" r="16.9"/>
<circle id="Ellipse_9" class="st0" cx="107.2" cy="221.5" r="16.9"/>
<circle id="Ellipse_10" class="st0" cx="126.1" cy="184.7" r="16.9"/>
<circle id="Ellipse_11" class="st0" cx="157.8" cy="156.1" r="16.9"/>
<circle id="Ellipse_12" class="st0" cx="196.8" cy="136.8" r="16.9"/>
<circle id="Ellipse_13" class="st0" cx="239.2" cy="132.7" r="16.9"/>
<circle id="Ellipse_14" class="st0" cx="283.8" cy="139" r="16.9"/>
<path id="Path_71" class="st1" d="M227.6,274.1c-0.4,1.6-1,3.3-1.6,4.8c-0.5,1.1-1,2.2-1.6,3.2h9.8v-8H227.6z"/>
<path id="Path_72" class="st1" d="M165.1,286.1c-1.6-2.1-3-4.5-3.9-7c-17.4,10.2-23.2,32.6-13,50c6.5,11,18.2,17.9,31,18l0,0h180
	l0,0h0.3c20.2,0,36.5-16.3,36.5-36.5c0-11.1-5.1-21.6-13.8-28.6v11.4c3.7,4.9,5.7,10.9,5.7,17.1l0,0c0,0.1,0,0.2,0,0.2
	c-0.1,15.7-13,28.4-28.7,28.2h-180c-15.7-0.2-28.3-13.2-28-28.9C151.3,300.3,156.6,291.2,165.1,286.1L165.1,286.1z"/>
<rect id="Rectangle_122" x="264.7" y="274.1" class="st0" width="10.1" height="8"/>
<path id="Path_73" class="st1" d="M344.3,274.1v8h5.2v-8H344.3z"/>
<rect id="Rectangle_123" x="303.7" y="274.1" class="st0" width="10.1" height="8"/>
<path id="Path_74" class="st1" d="M382.2,172.1h-32.7v125h32.7V172.1z M303.7,297.1v-94.3c0-2.8,2.3-5,5-5c2.8,0,5,2.3,5,5l0,0v94.3
	h30.6V193.5c0-11.8-9.6-21.4-21.4-21.4l0,0h-88.8v125h30.6v-94.3c0-2.8,2.3-5,5-5c2.8,0,5,2.3,5,5v94.3H303.7z M227.5,227.4
	c0-3.1,0-6.1,0-9.2V211c0-0.9,0-1.8,0-2.7c0-2.1,0-3.7,0-5.6c0-1.1-0.1-2.1-0.2-3.2c-0.1-1.6-0.4-3.3-0.7-4.9
	c-0.2-0.9-0.4-1.7-0.6-2.5c-0.3-0.9-0.6-1.9-1-2.8c-0.7-1.7-1.6-3.4-2.6-4.9c-1.7-2.5-3.8-4.6-6.2-6.4c-2.6-1.8-5.4-3.2-8.3-4.1
	c-4.2-1.3-8.6-1.9-13-1.9c-3.8-0.1-7.6,0.3-11.3,1.1c-2.6,0.6-5.2,1.5-7.7,2.6c-1.3,0.6-2.5,1.3-3.6,2.1c-1.1,0.8-2.2,1.7-3.2,2.7
	c-1.1,1.1-2.1,2.3-2.9,3.6c-1.6,2.6-2.8,5.4-3.7,8.3c-0.5,1.5-0.8,3-1.1,4.6c-1,5.1-1.4,10.2-1.2,15.4c0.1,1.9,0.3,3.7,0.5,5.5
	c0.1,1,0.3,2,0.5,2.9c0.2,1.1,0.5,2.2,0.9,3.2c0.2,0.7,0.5,1.4,0.8,2c0.3,0.7,0.7,1.5,1,2.2c0.4,0.7,0.8,1.4,1.3,2
	c0.5,0.7,1.1,1.4,1.7,2c0.9,1,1.9,1.8,3,2.6c1.2,0.8,2.5,1.6,3.8,2.2c2.1,0.9,4.2,1.6,6.4,2.1c0.8,0.2,1.7,0.4,2.5,0.5
	c0.9,0.2,1.7,0.3,2.6,0.5c0.9,0.2,1.9,0.4,2.8,0.7c0.9,0.3,1.8,0.6,2.7,0.9c0.5,0.2,0.9,0.4,1.4,0.6s1,0.5,1.5,0.8
	c0.7,0.4,1.4,1,2.1,1.6c0.7,0.6,1.3,1.4,1.8,2.2c0.5,0.8,0.8,1.7,1,2.6c0.2,1,0.4,2,0.3,3v15.5c0,2.8-2.2,5.1-5,5.1s-5.1-2.2-5.1-5
	v-0.1v-24H171c-0.8,0-1.7,0-2.5,0c-3.1,0-6.2,0-9.3,0.1c0,2.6,0,5.2,0,7.9v8.7c0,1.2,0,2.5,0,3.7c0,1.4,0.1,2.7,0.2,4.1
	c-0.5,15.1,11.4,27.7,26.4,28.2l0,0h0.1c0.5,0.1,1.1,0.1,1.6,0.2c1.3,0.1,2.6,0.1,3.9,0.1c2.9,0,5.7-0.1,8.5-0.5
	c1.6-0.2,3.1-0.5,4.6-0.8c2.1-0.4,4.1-1,6.1-1.8c2.2-0.9,4.2-2.1,6.1-3.5c4-3,7.2-7,9.2-11.5c0.5-1.3,1-2.6,1.4-3.9
	c0.4-1.5,0.7-2.9,1-4.4c0.7-4.6,0.8-9.3,0.1-13.9c-0.2-1.6-0.6-3.2-1-4.8c-0.4-1.6-1-3.2-1.6-4.7c-0.3-0.8-0.7-1.6-1.1-2.4
	c-0.5-0.9-1-1.7-1.5-2.5c-0.6-0.8-1.2-1.6-1.9-2.3c-2.4-2.5-5.2-4.6-8.4-6c-2.2-1-4.5-1.8-6.8-2.3c-1.2-0.3-2.5-0.5-3.7-0.7
	c-1.4-0.2-2.8-0.3-4.2-0.4c-0.7,0-1.4,0-2.1-0.1c-0.3,0-0.6,0-0.9,0c-0.6,0-1.3,0-1.9-0.1c-0.5,0-0.9-0.1-1.4-0.2
	c-0.9-0.2-1.7-0.7-2.3-1.4c-0.3-0.3-0.5-0.7-0.6-1.1c-0.2-0.4-0.3-0.8-0.3-1.3c-0.1-0.5-0.1-0.9-0.1-1.4v-24.5c0-2.8,2.2-5.1,5-5.1
	s5.1,2.2,5.1,5v0.1v27l24.6-0.1L227.5,227.4z"/>
</svg>
