<?xml version="1.0" encoding="utf-8"?>
<!-- Generator: Adobe Illustrator 23.0.3, SVG Export Plug-In . SVG Version: 6.00 Build 0)  -->
<svg version="1.1" id="Layer_1" xmlns="http://www.w3.org/2000/svg" xmlns:xlink="http://www.w3.org/1999/xlink" x="0px" y="0px"
	 viewBox="0 0 128 128" style="enable-background:new 0 0 128 128;" xml:space="preserve">
<style type="text/css">
	.st0{fill:#FFFFFF;}
</style>
<title>Artboard 1</title>
<path id="Path_143" class="st0" d="M0,116.6h32c-0.1-43,16-24.3,16-58.5c0-13.2-7-20.4-16-20.4c-13.3,0-22.5,15.7-10,45
	c4.1,9.6-4.4,11.9-13.6,14.5c-7.9,2.3-8.5,7-8.5,15.3V116.6z M109.3,70.6c-10.3,0-18.7,10.3-18.7,23s8.4,23,18.7,23
	s18.7-10.3,18.7-23S119.6,70.6,109.3,70.6z M117.3,96.9H112v6.6h-5.3v-6.6h-5.3v-6.6h5.3v-6.6h5.3v6.6h5.3L117.3,96.9z M91.7,116.6
	h-49v-5.4c0-11,0.7-17.4,11.3-20.4c12-3.4,23.8-6.4,18.1-19.4c-16.8-38.2-4.8-59.9,13.3-59.9c21.7,0,25.9,27.1,16.5,51.9
	c-10.5,4-18.2,16-18.2,30.2C83.4,102,86.3,110.1,91.7,116.6z"/>
</svg>
