<svg id="Layer_1" data-name="Layer 1" xmlns="http://www.w3.org/2000/svg" viewBox="0 0 128 128"><defs><style>.cls-1{fill:#e1d9cf;}</style></defs><title>Artboard 1</title><path id="Path_143" data-name="Path 143" class="cls-1" d="M0,116.58H32c-.15-43,16-24.3,16-58.5,0-13.2-7-20.37-16-20.37-13.29,0-22.54,15.66-9.95,44.95,4.13,9.62-4.4,11.91-13.57,14.52C.53,99.44,0,104.22,0,112.51Zm109.32-46c-10.3,0-18.66,10.3-18.66,23s8.36,23,18.66,23,18.67-10.3,18.67-23-8.36-23-18.67-23Zm8,26.29H112v6.57h-5.33V96.86h-5.34V90.29h5.34V83.72H112v6.57h5.33ZM91.66,116.58h-49v-5.45c0-11,.71-17.41,11.29-20.42,12-3.41,23.78-6.45,18.1-19.36-16.83-38.24-4.8-59.93,13.27-59.93,21.66,0,25.91,27.07,16.46,51.94-10.52,4-18.24,16-18.24,30.21A35.4,35.4,0,0,0,91.66,116.58Z"/></svg>