<?xml version="1.0" encoding="utf-8"?>
<!-- Generator: Adobe Illustrator 23.0.2, SVG Export Plug-In . SVG Version: 6.00 Build 0)  -->
<svg version="1.1" id="Layer_1" xmlns="http://www.w3.org/2000/svg" xmlns:xlink="http://www.w3.org/1999/xlink" x="0px" y="0px"
	 viewBox="0 0 595.3 841.9" style="enable-background:new 0 0 595.3 841.9;" xml:space="preserve">
<style type="text/css">
	.st0{fill:#E1D9CF;}
</style>
<path id="Path_143" class="st0" d="M95.2,254h50.5c-0.2-60.1,25.2-34,25.2-81.8c0-18.5-11-28.5-25.2-28.5c-21,0-35.5,21.9-15.7,62.8
	c6.5,13.5-6.9,16.6-21.4,20.3c-12.5,3.2-13.4,9.8-13.4,21.4L95.2,254z M267.6,189.7c-16.2,0-29.4,14.4-29.4,32.2
	s13.2,32.2,29.4,32.2s29.4-14.4,29.4-32.2S283.9,189.7,267.6,189.7L267.6,189.7z M280.2,226.4h-8.4v9.2h-8.4v-9.2H255v-9.2h8.4v-9.2
	h8.4v9.2h8.4L280.2,226.4z M239.8,254h-77.2l0-7.6c0-15.4,1.1-24.3,17.8-28.5c18.9-4.8,37.5-9,28.5-27.1
	c-26.5-53.5-7.6-83.8,20.9-83.8c34.1,0,40.8,37.8,25.9,72.6c-16.6,5.6-28.8,22.3-28.8,42.2C226.9,233.8,231.5,245.4,239.8,254z"/>
</svg>
