<?xml version="1.0" encoding="utf-8"?>
<!-- Generator: Adobe Illustrator 23.0.3, SVG Export Plug-In . SVG Version: 6.00 Build 0)  -->
<svg version="1.1" id="Layer_1" xmlns="http://www.w3.org/2000/svg" xmlns:xlink="http://www.w3.org/1999/xlink" x="0px" y="0px"
	 viewBox="0 0 595.3 841.9" style="enable-background:new 0 0 595.3 841.9;" xml:space="preserve">
<style type="text/css">
	.st0{fill:#B7B333;}
	.st1{fill:#F4E921;}
	.st2{fill:#7C7B31;}
	.st3{fill:#FFFFFF;}
</style>
<path id="Path_75" class="st0" d="M73.1,428.6l60.3-40.2V308l-60.3,40.2"/>
<path id="Path_76" class="st1" d="M133.5,388.4l-60.3-40.2l60.3-40.2l60.3,40.2"/>
<path id="Path_77" class="st2" d="M133.5,468.8l-60.3-40.2l60.3-40.2l60.3,40.2"/>
<path id="Path_78" class="st0" d="M157.3,484.6l60.3-40.2V364l-60.3,40.2"/>
<path id="Path_79" class="st0" d="M210,519.7l60.3-40.2v-80.4L210,439.3"/>
<path id="Path_80" class="st1" d="M246.8,463.8l-60.3-40.2l60.3-40.2l60.3,40.2"/>
<path id="Path_81" class="st3" d="M325.2,433.5c0,0.9,0.7,1.3,1.9,1.3s1.9-0.4,1.9-1.3v-8.3c0-0.3,0.1-0.5,0.4-0.5h1.5
	c0.3,0,0.4,0.1,0.4,0.5v8.7c0,1.5-1.1,2.9-4.3,2.9s-4.3-1.4-4.3-2.9v-8.7c0-0.3,0.1-0.5,0.4-0.5h1.5c0.3,0,0.4,0.1,0.4,0.5"/>
<path id="Path_82" class="st3" d="M342.3,434.7h3.9c0.3,0,0.4,0.1,0.4,0.4v1.1c0,0.3-0.1,0.4-0.4,0.4h-5.9c-0.3,0-0.4-0.2-0.4-0.5
	v-11c0-0.3,0.1-0.5,0.4-0.5h1.5c0.3,0,0.4,0.1,0.4,0.5"/>
<path id="Path_83" class="st3" d="M359.5,424.7c0.3,0,0.5,0.2,0.6,0.4l3.3,11c0.1,0.3,0,0.4-0.3,0.4h-1.6c-0.3,0-0.4-0.2-0.5-0.4
	l-0.6-2.1H357l-0.6,2.1c-0.1,0.3-0.2,0.4-0.5,0.4h-1.4c-0.3,0-0.4-0.2-0.3-0.4l3.3-11c0-0.3,0.3-0.5,0.5-0.4 M359.2,430.2
	c-0.2-1.1-0.4-2.1-0.5-3.2c0,0.2-0.3,2.4-0.5,3.2l-0.6,2h2.2L359.2,430.2z"/>
<path id="Path_84" class="st3" d="M378.8,433.9c0,1.5-0.9,2.9-4.1,2.9s-4.1-1.4-4.1-2.9v-6.5c0-1.5,0.9-2.9,4.1-2.9s4.1,1.4,4.1,2.9
	v0.8c0,0.3-0.1,0.4-0.4,0.4H377c-0.3,0-0.4-0.1-0.4-0.4v-0.4c0-0.9-0.6-1.3-1.8-1.3s-1.8,0.4-1.8,1.3v5.6c0,0.9,0.6,1.3,1.8,1.3
	s1.8-0.4,1.8-1.3v-0.7c0-0.3,0.1-0.4,0.4-0.4h1.5c0.3,0,0.4,0.1,0.4,0.4"/>
<path id="Path_85" class="st3" d="M391.5,436.2c0,0.3-0.1,0.5-0.4,0.5h-1.5c-0.3,0-0.4-0.1-0.4-0.5v-11c0-0.3,0.1-0.5,0.4-0.5h1.5
	c0.3,0,0.4,0.1,0.4,0.5"/>
<path id="Path_86" class="st3" d="M409.8,424.7c0.3,0,0.4,0.1,0.4,0.4v1.1c0,0.3-0.1,0.4-0.4,0.4h-2.5v9.5c0,0.3-0.1,0.5-0.4,0.5
	h-1.5c-0.3,0-0.4-0.1-0.4-0.5v-9.5h-2.5c-0.3,0-0.4-0.1-0.4-0.4v-1.1c0-0.3,0.1-0.4,0.4-0.4"/>
<path id="Path_87" class="st3" d="M324.3,456.5c-0.3,0-0.4-0.1-0.4-0.5v-11c0-0.3,0.1-0.5,0.4-0.5h6c0.3,0,0.4,0.1,0.4,0.4v1.1
	c0,0.3-0.1,0.4-0.4,0.4h-4v2.8h3.7c0.3,0,0.5,0.1,0.5,0.4v1c0,0.3-0.1,0.4-0.5,0.4h-3.7v3.3h4.2c0.3,0,0.4,0.1,0.4,0.4v1.1
	c0,0.3-0.1,0.4-0.4,0.4"/>
<path id="Path_88" class="st3" d="M344.7,447.6c0-0.9-0.6-1.3-1.7-1.3s-1.7,0.4-1.7,1.3v0.3c0,0.4,0.3,0.8,0.7,0.9l3,1.1
	c1.2,0.3,2,1.3,2.1,2.5v1.3c0,1.5-1,2.9-4.2,2.9c-3.1,0-4.2-1.4-4.2-2.9v-1.1c0-0.3,0.1-0.5,0.4-0.5h1.5c0.3,0,0.4,0.1,0.4,0.5v0.8
	c0,0.9,0.7,1.3,1.9,1.3c1.2,0,1.9-0.4,1.9-1.3v-0.6c0-0.7-0.7-1-1.5-1.3l-2.7-1c-0.9-0.4-1.6-1.3-1.6-2.3v-1c0-1.5,0.9-2.9,4-2.9
	s4.1,1.4,4.1,2.9v0.7c0,0.3-0.1,0.4-0.4,0.4h-1.5c-0.3,0-0.4-0.1-0.4-0.4"/>
<path id="Path_89" class="st3" d="M363,453.8c0,1.5-0.9,2.9-4.1,2.9s-4.1-1.4-4.1-2.9v-6.5c0-1.5,0.9-2.9,4.1-2.9s4.1,1.4,4.1,2.9
	v0.8c0,0.3-0.1,0.4-0.4,0.4h-1.5c-0.3,0-0.4-0.1-0.4-0.4v-0.4c0-0.9-0.6-1.3-1.8-1.3s-1.8,0.4-1.8,1.3v5.6c0,0.9,0.6,1.3,1.8,1.3
	s1.8-0.4,1.8-1.3v-0.7c0-0.3,0.1-0.4,0.4-0.4h1.5c0.3,0,0.4,0.1,0.4,0.4"/>
<path id="Path_90" class="st3" d="M375.3,444.6c0.3,0,0.5,0.2,0.6,0.4l3.3,11c0.1,0.3,0,0.4-0.3,0.4h-1.6c-0.3,0-0.4-0.2-0.5-0.4
	l-0.6-2.1h-3.3l-0.6,2.1c-0.1,0.3-0.2,0.4-0.5,0.4h-1.4c-0.3,0-0.4-0.2-0.3-0.4l3.3-11c0-0.3,0.3-0.5,0.5-0.4 M375,450.1
	c-0.2-1.1-0.4-2.1-0.5-3.2c0,0.2-0.3,2.4-0.5,3.2l-0.6,2h2.2L375,450.1z"/>
<path id="Path_91" class="st3" d="M393.5,444.6c0.3,0,0.5,0.1,0.5,0.4v1.1c0,0.1,0,0.2-0.1,0.3l-4.5,8.1h4.4c0.3,0,0.4,0.1,0.4,0.4
	v1.1c0,0.3-0.1,0.4-0.4,0.4H387c-0.3,0-0.4-0.1-0.4-0.4v-1c0-0.1,0-0.2,0.1-0.3l4.5-8.1h-3.8c-0.3,0-0.4-0.1-0.4-0.4V445
	c0-0.3,0.1-0.4,0.4-0.4"/>
<path id="Path_92" class="st3" d="M404.2,453.4c0,0.9,0.7,1.3,1.9,1.3s1.9-0.4,1.9-1.3V445c0-0.3,0.1-0.5,0.4-0.5h1.5
	c0.3,0,0.4,0.1,0.4,0.5v8.7c0,1.5-1.1,2.9-4.3,2.9s-4.3-1.4-4.3-2.9V445c0-0.3,0.1-0.5,0.4-0.5h1.5c0.3,0,0.4,0.1,0.4,0.5
	 M407.2,443.4c-0.1,0.2-0.3,0.3-0.6,0.3h-1.1c-0.3,0-0.4-0.1-0.2-0.4l0.9-1.7c0.1-0.3,0.3-0.4,0.6-0.4h1.5c0.3,0,0.4,0.2,0.2,0.4
	L407.2,443.4z"/>
<path id="Path_93" class="st3" d="M331.2,473.8c0,1.4-0.9,2.7-3.9,2.7s-3.9-1.3-3.9-2.7V467c0-1.4,0.9-2.7,3.9-2.7s3.9,1.3,3.9,2.7
	v0.9c0,0.2-0.1,0.3-0.3,0.3h-1c-0.2,0-0.3-0.1-0.3-0.3v-0.6c0-1-0.6-1.5-2.2-1.5s-2.2,0.6-2.2,1.5v6.2c0,1,0.6,1.5,2.2,1.5
	s2.2-0.6,2.2-1.5v-0.8c0-0.2,0.1-0.3,0.3-0.3h1c0.2,0,0.3,0.1,0.3,0.3"/>
<path id="Path_94" class="st3" d="M340.1,476.4c-0.2,0-0.3-0.1-0.3-0.3v-11.2c0-0.2,0.1-0.4,0.3-0.4h6c0.2,0,0.3,0.1,0.3,0.3v0.8
	c0,0.2-0.1,0.3-0.3,0.3h-4.6v3.5h4.3c0.2,0,0.3,0.1,0.3,0.3v0.8c0,0.2-0.1,0.3-0.3,0.3h-4.3v4h4.8c0.2,0,0.3,0.1,0.3,0.3v0.8
	c0,0.2-0.1,0.3-0.3,0.3"/>
<path id="Path_95" class="st3" d="M362.7,476.1c0,0.2-0.1,0.3-0.3,0.3h-1c-0.1,0-0.3,0-0.3-0.2L357,469c-0.2-0.4-0.4-0.8-0.6-1.3
	v8.3c0,0.2-0.1,0.3-0.3,0.3h-1c-0.2,0-0.3-0.1-0.3-0.3v-11.3c0-0.2,0.1-0.3,0.3-0.3h1c0.1,0,0.2,0,0.3,0.1l4.2,7.4
	c0.2,0.4,0.5,1.1,0.5,1.1v-8.3c0-0.2,0.1-0.3,0.3-0.3h1c0.2,0,0.3,0.1,0.3,0.3"/>
<path id="Path_96" class="st3" d="M378.2,464.5c0.2,0,0.3,0.1,0.3,0.3v0.8c0,0.2-0.1,0.3-0.3,0.3h-2.8V476c0,0.2-0.1,0.3-0.3,0.3
	H374c-0.2,0-0.3-0.1-0.3-0.3v-10.1h-2.8c-0.2,0-0.3-0.1-0.3-0.3v-0.8c0-0.2,0.1-0.3,0.3-0.3"/>
<path id="Path_97" class="st3" d="M388.3,471.7v4.4c0,0.2-0.1,0.3-0.3,0.3h-1.1c-0.2,0-0.3-0.1-0.3-0.3v-11.2c0-0.2,0.1-0.4,0.3-0.4
	h3.6c3,0,4,1.3,4,2.7v1.8c0,1.2-0.9,2.3-2.1,2.5l2.1,4.6c0.1,0.2-0.1,0.3-0.3,0.3h-1.1c-0.2,0-0.3-0.1-0.4-0.3l-2-4.4h-0.3
	 M388.3,465.9v4.3h2.2c1.6,0,2.3-0.6,2.3-1.5v-1.2c0-0.9-0.7-1.5-2.3-1.5L388.3,465.9L388.3,465.9z"/>
<path id="Path_98" class="st3" d="M402.1,467c0-1.4,1-2.7,4-2.7s4,1.3,4,2.7v6.8c0,1.4-1,2.7-4,2.7s-4-1.3-4-2.7 M408.4,467.3
	c0-0.9-0.7-1.5-2.3-1.5c-1.6,0-2.3,0.6-2.3,1.5v6.2c0,0.9,0.7,1.5,2.3,1.5c1.6,0,2.3-0.6,2.3-1.5V467.3z"/>
<path id="Path_99" class="st3" d="M434.1,476.4c-0.2,0-0.3-0.1-0.3-0.3v-11.2c0-0.2,0.1-0.4,0.3-0.4h3.7c3,0,4,1.3,4,2.7v6.5
	c0,1.4-1,2.7-4,2.7 M435.6,465.9v9h2.3c1.6,0,2.3-0.6,2.3-1.5v-6c0-0.9-0.7-1.5-2.3-1.5H435.6z"/>
<path id="Path_100" class="st3" d="M450.7,476.4c-0.2,0-0.3-0.1-0.3-0.3v-11.2c0-0.2,0.1-0.4,0.3-0.4h6c0.2,0,0.3,0.1,0.3,0.3v0.8
	c0,0.2-0.1,0.3-0.3,0.3h-4.6v3.5h4.3c0.2,0,0.3,0.1,0.3,0.3v0.8c0,0.2-0.1,0.3-0.3,0.3h-4.3v4h4.8c0.2,0,0.3,0.1,0.3,0.3v0.8
	c0,0.2-0.1,0.3-0.3,0.3"/>
<path id="Path_101" class="st3" d="M517.3,504.3c0.2,0,0.4,0.1,0.4,0.3l3.4,11.2c0.1,0.2,0,0.3-0.3,0.3h-1.1c-0.2,0-0.4-0.1-0.4-0.3
	l-0.8-2.7h-3.7l-0.8,2.7c0,0.2-0.2,0.3-0.4,0.3h-1c-0.2,0-0.3-0.1-0.2-0.3l3.4-11.2c0-0.2,0.2-0.3,0.4-0.3 M517.2,508.6
	c-0.2-0.8-0.4-1.7-0.5-2.6c0,0.2-0.3,1.8-0.5,2.5l-1,3.2h2.9L517.2,508.6z"/>
<path id="Path_102" class="st3" d="M330.8,524.2c0.2,0,0.3,0.1,0.3,0.3v0.8c0,0.2-0.1,0.3-0.3,0.3H328v10.1c0,0.2-0.1,0.3-0.3,0.3
	h-1.1c-0.2,0-0.3-0.1-0.3-0.3v-10.1h-2.8c-0.2,0-0.3-0.1-0.3-0.3v-0.8c0-0.2,0.1-0.3,0.3-0.3"/>
<path id="Path_103" class="st3" d="M340.1,536.1c-0.2,0-0.3-0.1-0.3-0.3v-11.2c0-0.2,0.1-0.3,0.3-0.3h6c0.2,0,0.3,0.1,0.3,0.3v0.8
	c0,0.2-0.1,0.3-0.3,0.3h-4.6v3.5h4.3c0.2,0,0.3,0.1,0.3,0.3v0.8c0,0.2-0.1,0.3-0.3,0.3h-4.3v4h4.8c0.2,0,0.3,0.1,0.3,0.3v0.8
	c0,0.2-0.1,0.3-0.3,0.3"/>
<path id="Path_104" class="st3" d="M362.8,533.5c0,1.4-0.9,2.7-3.9,2.7s-3.9-1.3-3.9-2.7v-6.8c0-1.4,0.9-2.7,3.9-2.7
	s3.9,1.3,3.9,2.7v0.9c0,0.2-0.1,0.3-0.3,0.3h-1c-0.2,0-0.3-0.1-0.3-0.3V527c0-1-0.6-1.5-2.2-1.5s-2.2,0.6-2.2,1.5v6.2
	c0,1,0.6,1.5,2.2,1.5s2.2-0.6,2.2-1.5v-0.8c0-0.2,0.1-0.3,0.3-0.3h1c0.2,0,0.3,0.1,0.3,0.3"/>
<path id="Path_105" class="st3" d="M378.5,535.7c0,0.2-0.1,0.3-0.3,0.3h-1c-0.1,0-0.3,0-0.3-0.2l-4.1-7.2c-0.2-0.4-0.4-0.8-0.6-1.3
	v8.3c0,0.2-0.1,0.3-0.3,0.3h-1c-0.2,0-0.3-0.1-0.3-0.3v-11.2c0-0.2,0.1-0.3,0.3-0.3h1c0.1,0,0.2,0,0.3,0.1l4.2,7.4
	c0.2,0.4,0.5,1.1,0.5,1.1v-8.3c0-0.2,0.1-0.3,0.3-0.3h1c0.2,0,0.3,0.1,0.3,0.3"/>
<path id="Path_106" class="st3" d="M386.3,526.7c0-1.4,1-2.7,4-2.7s4,1.3,4,2.7v6.8c0,1.4-1,2.7-4,2.7s-4-1.3-4-2.7 M392.6,527
	c0-0.9-0.7-1.5-2.3-1.5c-1.6,0-2.3,0.6-2.3,1.5v6.2c0,0.9,0.7,1.5,2.3,1.5c1.6,0,2.3-0.6,2.3-1.5V527z"/>
<path id="Path_107" class="st3" d="M405,534.6h4.5c0.2,0,0.3,0.1,0.3,0.3v0.8c0,0.2-0.1,0.3-0.3,0.3h-5.9c-0.2,0-0.3-0.1-0.3-0.3
	v-11.2c0-0.2,0.1-0.3,0.3-0.3h1.1c0.2,0,0.3,0.1,0.3,0.3"/>
<path id="Path_108" class="st3" d="M417.9,526.7c0-1.4,1-2.7,4-2.7s4,1.3,4,2.7v6.8c0,1.4-1,2.7-4,2.7s-4-1.3-4-2.7 M424.2,527
	c0-0.9-0.7-1.5-2.3-1.5c-1.6,0-2.3,0.6-2.3,1.5v6.2c0,0.9,0.7,1.5,2.3,1.5c1.6,0,2.3-0.6,2.3-1.5V527z M422.5,523
	c-0.1,0.1-0.3,0.2-0.4,0.2h-0.8c-0.2,0-0.3-0.1-0.2-0.3l1-1.9c0.1-0.2,0.3-0.3,0.5-0.3h1.1c0.2,0,0.3,0.1,0.2,0.3L422.5,523z"/>
<path id="Path_109" class="st3" d="M441.4,530.1c0.2,0,0.3,0.1,0.3,0.3v3.1c0,1.4-0.9,2.7-3.9,2.7s-3.9-1.3-3.9-2.7v-6.8
	c0-1.4,0.9-2.7,3.9-2.7s3.9,1.3,3.9,2.7v0.8c0,0.2-0.1,0.3-0.3,0.3h-1c-0.2,0-0.3-0.1-0.3-0.3V527c0-1-0.6-1.5-2.2-1.5
	s-2.2,0.6-2.2,1.5v6.2c0,1,0.6,1.5,2.2,1.5s2.2-0.6,2.2-1.5v-1.7H438c-0.2,0-0.3-0.1-0.3-0.3v-0.8c0-0.2,0.1-0.3,0.3-0.3"/>
<path id="Path_110" class="st3" d="M454.4,535.7c0,0.2-0.1,0.3-0.3,0.3H453c-0.2,0-0.3-0.1-0.3-0.3v-11.2c0-0.2,0.1-0.3,0.3-0.3h1.1
	c0.2,0,0.3,0.1,0.3,0.3"/>
<path id="Path_111" class="st3" d="M473.4,533.5c0,1.4-0.9,2.7-3.9,2.7s-3.9-1.3-3.9-2.7v-6.8c0-1.4,0.9-2.7,3.9-2.7
	s3.9,1.3,3.9,2.7v0.9c0,0.2-0.1,0.3-0.3,0.3h-1c-0.2,0-0.3-0.1-0.3-0.3V527c0-1-0.6-1.5-2.2-1.5s-2.2,0.6-2.2,1.5v6.2
	c0,1,0.6,1.5,2.2,1.5s2.2-0.6,2.2-1.5v-0.8c0-0.2,0.1-0.3,0.3-0.3h1c0.2,0,0.3,0.1,0.3,0.3"/>
<path id="Path_112" class="st3" d="M485.7,524.2c0.2,0,0.4,0.1,0.4,0.3l3.4,11.2c0.1,0.2,0,0.3-0.3,0.3h-1.1c-0.2,0-0.3-0.1-0.4-0.3
	l-0.8-2.7h-3.7l-0.8,2.7c0,0.2-0.2,0.3-0.4,0.3h-1c-0.2,0-0.3-0.1-0.2-0.3l3.4-11.2c0-0.2,0.2-0.3,0.4-0.3 M485.6,528.5
	c-0.2-0.8-0.4-1.7-0.5-2.6c0,0.2-0.3,1.8-0.5,2.5l-1,3.2h2.9L485.6,528.5z"/>
<path id="Path_113" class="st3" d="M328,495.9c0,0.2-0.1,0.3-0.3,0.3h-1.1c-0.2,0-0.3-0.1-0.3-0.3v-11.2c0-0.2,0.1-0.3,0.3-0.3h1.1
	c0.2,0,0.3,0.1,0.3,0.3"/>
<path id="Path_114" class="st3" d="M346.9,496c0,0.2-0.1,0.3-0.3,0.3h-1c-0.1,0-0.3,0-0.3-0.2l-4.1-7.2c-0.2-0.4-0.4-0.8-0.6-1.3
	v8.3c0,0.2-0.1,0.3-0.3,0.3h-1c-0.2,0-0.3-0.1-0.3-0.3v-11.2c0-0.2,0.1-0.3,0.3-0.3h1c0.1,0,0.2,0,0.3,0.1l4.2,7.4
	c0.2,0.4,0.5,1.1,0.5,1.1v-8.3c0-0.2,0.1-0.3,0.3-0.3h1c0.2,0,0.3,0.1,0.3,0.3"/>
<path id="Path_115" class="st3" d="M362.7,496c0,0.2-0.1,0.3-0.3,0.3h-1c-0.1,0-0.3,0-0.3-0.2l-4.1-7.2c-0.2-0.4-0.4-0.8-0.6-1.3
	v8.3c0,0.2-0.1,0.3-0.3,0.3h-1c-0.2,0-0.3-0.1-0.3-0.3v-11.2c0-0.2,0.1-0.3,0.3-0.3h1c0.1,0,0.2,0,0.3,0.1l4.2,7.4
	c0.2,0.4,0.5,1.1,0.5,1.1v-8.3c0-0.2,0.1-0.3,0.3-0.3h1c0.2,0,0.3,0.1,0.3,0.3"/>
<path id="Path_116" class="st3" d="M370.5,486.9c0-1.4,1-2.7,4-2.7s4,1.3,4,2.7v6.8c0,1.4-1,2.7-4,2.7s-4-1.3-4-2.7 M376.8,487.2
	c0-0.9-0.7-1.5-2.3-1.5c-1.6,0-2.3,0.6-2.3,1.5v6.2c0,0.9,0.7,1.5,2.3,1.5c1.6,0,2.3-0.6,2.3-1.5V487.2z"/>
<path id="Path_117" class="st3" d="M389.8,496.3c-0.2,0-0.4-0.1-0.4-0.3l-3.4-11.2c-0.1-0.2,0-0.3,0.2-0.3h1.2
	c0.2,0,0.3,0.1,0.4,0.3l2.2,7.3c0.2,0.7,0.3,1.4,0.4,2.1c0,0,0.2-1.5,0.4-2.1l2.2-7.3c0.1-0.2,0.2-0.3,0.4-0.3h1.1
	c0.2,0,0.3,0.1,0.3,0.3l-3.4,11.2c0,0.2-0.2,0.3-0.4,0.3"/>
<path id="Path_118" class="st3" d="M406.7,484.4c0.2,0,0.4,0.1,0.4,0.3l3.4,11.2c0.1,0.2,0,0.3-0.3,0.3h-1.1c-0.2,0-0.4-0.1-0.4-0.3
	l-0.8-2.7h-3.7l-0.8,2.7c0,0.2-0.2,0.3-0.4,0.3h-1c-0.2,0-0.3-0.1-0.2-0.3l3.4-11.2c0-0.2,0.2-0.3,0.4-0.3 M406.6,488.7
	c-0.2-0.8-0.4-1.7-0.5-2.6c0,0.2-0.3,1.8-0.5,2.5l-1,3.2h2.9L406.6,488.7z"/>
<path id="Path_119" class="st3" d="M426,493.7c0,1.4-0.9,2.7-3.9,2.7s-3.9-1.3-3.9-2.7v-6.8c0-1.4,0.9-2.7,3.9-2.7s3.9,1.3,3.9,2.7
	v0.9c0,0.2-0.1,0.3-0.3,0.3h-1c-0.2,0-0.3-0.1-0.3-0.3v-0.6c0-0.9-0.6-1.5-2.2-1.5s-2.2,0.6-2.2,1.5v6.2c0,0.9,0.6,1.5,2.2,1.5
	s2.2-0.6,2.2-1.5v-0.8c0-0.2,0.1-0.3,0.3-0.3h1c0.2,0,0.3,0.1,0.3,0.3"/>
<path id="Path_120" class="st3" d="M438.6,495.9c0,0.2-0.1,0.3-0.3,0.3h-1.1c-0.2,0-0.3-0.1-0.3-0.3v-11.2c0-0.2,0.1-0.3,0.3-0.3
	h1.1c0.2,0,0.3,0.1,0.3,0.3"/>
<path id="Path_121" class="st3" d="M449.6,486.9c0-1.4,1-2.7,4-2.7s4,1.3,4,2.7v6.8c0,1.4-1,2.7-4,2.7s-4-1.3-4-2.7 M455.8,487.2
	c0-0.9-0.7-1.5-2.3-1.5c-1.6,0-2.3,0.6-2.3,1.5v6.2c0,0.9,0.7,1.5,2.3,1.5c1.6,0,2.3-0.6,2.3-1.5V487.2z M454.1,483.2
	c-0.1,0.1-0.3,0.2-0.4,0.2h-0.8c-0.2,0-0.3-0.1-0.2-0.3l1-1.9c0.1-0.2,0.3-0.3,0.5-0.3h1.1c0.2,0,0.3,0.1,0.2,0.3L454.1,483.2z"/>
<path id="Path_122" class="st3" d="M473.3,496c0,0.2-0.1,0.3-0.3,0.3h-1c-0.1,0-0.3,0-0.3-0.2l-4.1-7.2c-0.2-0.4-0.4-0.8-0.6-1.3
	v8.3c0,0.2-0.1,0.3-0.3,0.3h-1c-0.2,0-0.3-0.1-0.3-0.3v-11.2c0-0.2,0.1-0.3,0.3-0.3h1c0.1,0,0.2,0,0.3,0.1l4.2,7.4
	c0.2,0.4,0.5,1.1,0.5,1.1v-8.3c0-0.2,0.1-0.3,0.3-0.3h1c0.2,0,0.3,0.1,0.3,0.3"/>
<path id="Path_123" class="st3" d="M500.7,489.3c0.1,0.2,0.3,0.7,0.3,0.8c0.1-0.3,0.2-0.5,0.3-0.8l2.3-4.6c0.1-0.2,0.2-0.3,0.4-0.3
	h1.1c0.2,0,0.3,0.1,0.2,0.3l-3.4,6.8v4.4c0,0.2-0.1,0.3-0.3,0.3h-1.1c-0.2,0-0.3-0.1-0.3-0.3v-4.2l-3.5-7c-0.1-0.2,0-0.3,0.2-0.3
	h1.2c0.2,0,0.3,0.1,0.4,0.3"/>
<path id="Path_124" class="st3" d="M330.8,504.3c0.2,0,0.3,0.1,0.3,0.3v0.8c0,0.2-0.1,0.3-0.3,0.3H328v10.1c0,0.2-0.1,0.3-0.3,0.3
	h-1.1c-0.2,0-0.3-0.1-0.3-0.3v-10.1h-2.8c-0.2,0-0.3-0.1-0.3-0.3v-0.8c0-0.2,0.1-0.3,0.3-0.3"/>
<path id="Path_125" class="st3" d="M340.9,511.5v4.4c0,0.2-0.1,0.3-0.3,0.3h-1.1c-0.2,0-0.3-0.1-0.3-0.3v-11.2
	c0-0.2,0.1-0.3,0.3-0.3h3.6c3,0,4,1.3,4,2.7v1.8c0,1.2-0.9,2.3-2.1,2.5l2.1,4.6c0.1,0.2-0.1,0.3-0.3,0.3h-1.1
	c-0.2,0-0.3-0.1-0.4-0.3l-2-4.4H343 M340.9,505.7v4.3h2.2c1.6,0,2.3-0.6,2.3-1.5v-1.2c0-0.9-0.7-1.5-2.3-1.5L340.9,505.7z"/>
<path id="Path_126" class="st3" d="M359.3,504.3c0.2,0,0.4,0.1,0.4,0.3l3.4,11.2c0.1,0.2,0,0.3-0.3,0.3h-1.1c-0.2,0-0.4-0.1-0.4-0.3
	l-0.8-2.7h-3.7l-0.8,2.7c0,0.2-0.2,0.3-0.4,0.3h-1c-0.2,0-0.3-0.1-0.2-0.3l3.4-11.2c0-0.2,0.2-0.3,0.4-0.3 M359.2,508.6
	c-0.2-0.8-0.4-1.7-0.5-2.6c0,0.2-0.3,1.8-0.5,2.5l-1,3.2h2.9L359.2,508.6z"/>
<path id="Path_127" class="st3" d="M378.5,515.8c0,0.2-0.1,0.3-0.3,0.3h-1c-0.1,0-0.3,0-0.3-0.2l-4.1-7.2c-0.2-0.4-0.4-0.8-0.6-1.3
	v8.3c0,0.2-0.1,0.3-0.3,0.3h-1c-0.2,0-0.3-0.1-0.3-0.3v-11.2c0-0.2,0.1-0.3,0.3-0.3h1c0.1,0,0.2,0,0.3,0.1l4.2,7.4
	c0.2,0.4,0.5,1.1,0.5,1.1v-8.3c0-0.2,0.1-0.3,0.3-0.3h1c0.2,0,0.3,0.1,0.3,0.3"/>
<path id="Path_128" class="st3" d="M392.5,507c0-0.9-0.6-1.5-2.1-1.5s-2.1,0.5-2.1,1.5v0.3c0,0.6,0.4,1,0.9,1.2l3.2,1.2
	c1.1,0.3,1.9,1.2,1.9,2.4v1.5c0,1.4-1,2.7-3.9,2.7s-3.9-1.3-3.9-2.7v-1c0-0.2,0.1-0.3,0.3-0.3h1c0.2,0,0.3,0.1,0.3,0.3v0.8
	c0,0.9,0.7,1.5,2.2,1.5s2.3-0.5,2.3-1.5v-0.8c0-0.9-0.8-1.2-1.5-1.4l-3-1.1c-0.9-0.3-1.5-1.2-1.6-2.2v-1c0-1.4,0.9-2.7,3.8-2.7
	s3.8,1.3,3.8,2.7v0.8c0,0.2-0.1,0.3-0.3,0.3h-1c-0.2,0-0.3-0.1-0.3-0.3"/>
<path id="Path_129" class="st3" d="M409.7,504.3c0.2,0,0.3,0.1,0.3,0.3v0.8c0,0.2-0.1,0.3-0.3,0.3h-5v3.6h4.7c0.2,0,0.3,0.1,0.3,0.3
	v0.8c0,0.2-0.1,0.3-0.3,0.3h-4.7v5.1c0,0.2-0.1,0.3-0.3,0.3h-1.1c-0.2,0-0.3-0.1-0.3-0.3v-11.2c0-0.2,0.1-0.3,0.3-0.3"/>
<path id="Path_130" class="st3" d="M419.1,516.2c-0.2,0-0.3-0.1-0.3-0.3v-11.2c0-0.2,0.1-0.3,0.3-0.3h6c0.2,0,0.3,0.1,0.3,0.3v0.8
	c0,0.2-0.1,0.3-0.3,0.3h-4.6v3.5h4.3c0.2,0,0.4,0.1,0.4,0.3v0.8c0,0.2-0.1,0.3-0.4,0.3h-4.3v4h4.8c0.2,0,0.3,0.1,0.3,0.3v0.8
	c0,0.2-0.1,0.3-0.3,0.3"/>
<path id="Path_131" class="st3" d="M435.7,511.5v4.4c0,0.2-0.1,0.3-0.3,0.3h-1.1c-0.2,0-0.3-0.1-0.3-0.3v-11.2
	c0-0.2,0.1-0.3,0.3-0.3h3.6c3,0,4,1.3,4,2.7v1.8c0,1.2-0.9,2.3-2.1,2.5l2.1,4.6c0.1,0.2-0.1,0.3-0.3,0.3h-1.1
	c-0.2,0-0.3-0.1-0.4-0.3l-2-4.4h-0.3 M435.7,505.7v4.3h2.2c1.6,0,2.3-0.6,2.3-1.5v-1.2c0-0.9-0.7-1.5-2.3-1.5L435.7,505.7z"/>
<path id="Path_132" class="st3" d="M450.7,516.2c-0.2,0-0.3-0.1-0.3-0.3v-11.2c0-0.2,0.1-0.3,0.3-0.3h6c0.2,0,0.3,0.1,0.3,0.3v0.8
	c0,0.2-0.1,0.3-0.3,0.3h-4.6v3.5h4.3c0.2,0,0.3,0.1,0.3,0.3v0.8c0,0.2-0.1,0.3-0.3,0.3h-4.3v4h4.8c0.2,0,0.3,0.1,0.3,0.3v0.8
	c0,0.2-0.1,0.3-0.3,0.3"/>
<path id="Path_133" class="st3" d="M473.3,515.8c0,0.2-0.1,0.3-0.3,0.3h-1c-0.1,0-0.3,0-0.3-0.2l-4.1-7.2c-0.2-0.4-0.4-0.8-0.6-1.3
	v8.3c0,0.2-0.1,0.3-0.3,0.3h-1c-0.2,0-0.3-0.1-0.3-0.3v-11.2c0-0.2,0.1-0.3,0.3-0.3h1c0.1,0,0.2,0,0.3,0.1l4.2,7.4
	c0.2,0.4,0.4,0.7,0.5,1.1v-8.3c0-0.2,0.1-0.3,0.3-0.3h1c0.2,0,0.3,0.1,0.3,0.3"/>
<path id="Path_134" class="st3" d="M489.2,513.6c0,1.4-0.9,2.7-3.9,2.7s-3.9-1.3-3.9-2.7v-6.8c0-1.4,0.9-2.7,3.9-2.7
	s3.9,1.3,3.9,2.7v0.9c0,0.2-0.1,0.3-0.3,0.3h-1c-0.2,0-0.3-0.1-0.3-0.3v-0.6c0-0.9-0.6-1.5-2.2-1.5s-2.2,0.6-2.2,1.5v6.2
	c0,0.9,0.6,1.5,2.2,1.5s2.2-0.6,2.2-1.5v-0.8c0-0.2,0.1-0.3,0.3-0.3h1c0.2,0,0.3,0.1,0.3,0.3"/>
<path id="Path_135" class="st3" d="M501.8,515.8c0,0.2-0.1,0.3-0.3,0.3h-1.1c-0.2,0-0.3-0.1-0.3-0.3v-11.2c0-0.2,0.1-0.3,0.3-0.3
	h1.1c0.2,0,0.3,0.1,0.3,0.3"/>
</svg>
