<?xml version="1.0" encoding="utf-8"?>
<!-- Generator: Adobe Illustrator 23.0.3, SVG Export Plug-In . SVG Version: 6.00 Build 0)  -->
<svg version="1.1" id="Layer_1" xmlns="http://www.w3.org/2000/svg" xmlns:xlink="http://www.w3.org/1999/xlink" x="0px" y="0px"
	 viewBox="0 0 480 480" style="enable-background:new 0 0 480 480;" xml:space="preserve">
<style type="text/css">
	.st0{fill:#B7B333;}
	.st1{fill:#F4E921;}
	.st2{fill:#7C7B31;}
	.st3{fill:#FFFFFF;}
</style>
<g>
	<path id="Path_75" class="st0" d="M16,246.5l60.3-40.2v-80.4L16,166.1"/>
	<path id="Path_76" class="st1" d="M76.4,206.3l-60.3-40.2l60.3-40.2l60.3,40.2"/>
	<path id="Path_77" class="st2" d="M76.4,286.7l-60.3-40.2l60.3-40.2l60.3,40.2"/>
	<path id="Path_78" class="st0" d="M100.2,302.5l60.3-40.2v-80.4l-60.3,40.2"/>
	<path id="Path_79" class="st0" d="M152.9,337.6l60.3-40.2V217l-60.3,40.2"/>
	<path id="Path_80" class="st1" d="M189.7,281.7l-60.3-40.2l60.3-40.2l60.3,40.2"/>
	<path id="Path_81" class="st3" d="M268.1,251.4c0,0.9,0.7,1.3,1.9,1.3s1.9-0.4,1.9-1.3v-8.3c0-0.3,0.1-0.5,0.4-0.5h1.5
		c0.3,0,0.4,0.1,0.4,0.5v8.7c0,1.5-1.1,2.9-4.3,2.9s-4.3-1.4-4.3-2.9v-8.7c0-0.3,0.1-0.5,0.4-0.5h1.5c0.3,0,0.4,0.1,0.4,0.5"/>
	<path id="Path_82" class="st3" d="M285.2,252.6h3.9c0.3,0,0.4,0.1,0.4,0.4v1.1c0,0.3-0.1,0.4-0.4,0.4h-5.9c-0.3,0-0.4-0.2-0.4-0.5
		v-11c0-0.3,0.1-0.5,0.4-0.5h1.5c0.3,0,0.4,0.1,0.4,0.5"/>
	<path id="Path_83" class="st3" d="M302.4,242.6c0.3,0,0.5,0.2,0.6,0.4l3.3,11c0.1,0.3,0,0.4-0.3,0.4h-1.6c-0.3,0-0.4-0.2-0.5-0.4
		l-0.6-2.1h-3.4l-0.6,2.1c-0.1,0.3-0.2,0.4-0.5,0.4h-1.4c-0.3,0-0.4-0.2-0.3-0.4l3.3-11c0-0.3,0.3-0.5,0.5-0.4 M302.1,248.1
		c-0.2-1.1-0.4-2.1-0.5-3.2c0,0.2-0.3,2.4-0.5,3.2l-0.6,2h2.2L302.1,248.1z"/>
	<path id="Path_84" class="st3" d="M321.7,251.8c0,1.5-0.9,2.9-4.1,2.9s-4.1-1.4-4.1-2.9v-6.5c0-1.5,0.9-2.9,4.1-2.9
		s4.1,1.4,4.1,2.9v0.8c0,0.3-0.1,0.4-0.4,0.4h-1.4c-0.3,0-0.4-0.1-0.4-0.4v-0.4c0-0.9-0.6-1.3-1.8-1.3s-1.8,0.4-1.8,1.3v5.6
		c0,0.9,0.6,1.3,1.8,1.3s1.8-0.4,1.8-1.3v-0.7c0-0.3,0.1-0.4,0.4-0.4h1.5c0.3,0,0.4,0.1,0.4,0.4"/>
	<path id="Path_85" class="st3" d="M334.4,254.1c0,0.3-0.1,0.5-0.4,0.5h-1.5c-0.3,0-0.4-0.1-0.4-0.5v-11c0-0.3,0.1-0.5,0.4-0.5h1.5
		c0.3,0,0.4,0.1,0.4,0.5"/>
	<path id="Path_86" class="st3" d="M352.7,242.6c0.3,0,0.4,0.1,0.4,0.4v1.1c0,0.3-0.1,0.4-0.4,0.4h-2.5v9.5c0,0.3-0.1,0.5-0.4,0.5
		h-1.5c-0.3,0-0.4-0.1-0.4-0.5v-9.5h-2.5c-0.3,0-0.4-0.1-0.4-0.4V243c0-0.3,0.1-0.4,0.4-0.4"/>
	<path id="Path_87" class="st3" d="M267.2,274.4c-0.3,0-0.4-0.1-0.4-0.5v-11c0-0.3,0.1-0.5,0.4-0.5h6c0.3,0,0.4,0.1,0.4,0.4v1.1
		c0,0.3-0.1,0.4-0.4,0.4h-4v2.8h3.7c0.3,0,0.5,0.1,0.5,0.4v1c0,0.3-0.1,0.4-0.5,0.4h-3.7v3.3h4.2c0.3,0,0.4,0.1,0.4,0.4v1.1
		c0,0.3-0.1,0.4-0.4,0.4"/>
	<path id="Path_88" class="st3" d="M287.6,265.5c0-0.9-0.6-1.3-1.7-1.3s-1.7,0.4-1.7,1.3v0.3c0,0.4,0.3,0.8,0.7,0.9l3,1.1
		c1.2,0.3,2,1.3,2.1,2.5v1.3c0,1.5-1,2.9-4.2,2.9c-3.1,0-4.2-1.4-4.2-2.9v-1.1c0-0.3,0.1-0.5,0.4-0.5h1.5c0.3,0,0.4,0.1,0.4,0.5v0.8
		c0,0.9,0.7,1.3,1.9,1.3c1.2,0,1.9-0.4,1.9-1.3v-0.6c0-0.7-0.7-1-1.5-1.3l-2.7-1c-0.9-0.4-1.6-1.3-1.6-2.3v-1c0-1.5,0.9-2.9,4-2.9
		s4.1,1.4,4.1,2.9v0.7c0,0.3-0.1,0.4-0.4,0.4h-1.5c-0.3,0-0.4-0.1-0.4-0.4"/>
	<path id="Path_89" class="st3" d="M305.9,271.7c0,1.5-0.9,2.9-4.1,2.9s-4.1-1.4-4.1-2.9v-6.5c0-1.5,0.9-2.9,4.1-2.9
		s4.1,1.4,4.1,2.9v0.8c0,0.3-0.1,0.4-0.4,0.4H304c-0.3,0-0.4-0.1-0.4-0.4v-0.4c0-0.9-0.6-1.3-1.8-1.3s-1.8,0.4-1.8,1.3v5.6
		c0,0.9,0.6,1.3,1.8,1.3s1.8-0.4,1.8-1.3v-0.7c0-0.3,0.1-0.4,0.4-0.4h1.5c0.3,0,0.4,0.1,0.4,0.4"/>
	<path id="Path_90" class="st3" d="M318.2,262.5c0.3,0,0.5,0.2,0.6,0.4l3.3,11c0.1,0.3,0,0.4-0.3,0.4h-1.6c-0.3,0-0.4-0.2-0.5-0.4
		l-0.6-2.1h-3.3l-0.6,2.1c-0.1,0.3-0.2,0.4-0.5,0.4h-1.4c-0.3,0-0.4-0.2-0.3-0.4l3.3-11c0-0.3,0.3-0.5,0.5-0.4 M317.9,268
		c-0.2-1.1-0.4-2.1-0.5-3.2c0,0.2-0.3,2.4-0.5,3.2l-0.6,2h2.2L317.9,268z"/>
	<path id="Path_91" class="st3" d="M336.4,262.5c0.3,0,0.5,0.1,0.5,0.4v1.1c0,0.1,0,0.2-0.1,0.3l-4.5,8.1h4.4c0.3,0,0.4,0.1,0.4,0.4
		v1.1c0,0.3-0.1,0.4-0.4,0.4h-6.8c-0.3,0-0.4-0.1-0.4-0.4v-1c0-0.1,0-0.2,0.1-0.3l4.5-8.1h-3.8c-0.3,0-0.4-0.1-0.4-0.4v-1.2
		c0-0.3,0.1-0.4,0.4-0.4"/>
	<path id="Path_92" class="st3" d="M347.1,271.3c0,0.9,0.7,1.3,1.9,1.3s1.9-0.4,1.9-1.3v-8.4c0-0.3,0.1-0.5,0.4-0.5h1.5
		c0.3,0,0.4,0.1,0.4,0.5v8.7c0,1.5-1.1,2.9-4.3,2.9s-4.3-1.4-4.3-2.9v-8.7c0-0.3,0.1-0.5,0.4-0.5h1.5c0.3,0,0.4,0.1,0.4,0.5
		 M350.1,261.3c-0.1,0.2-0.3,0.3-0.6,0.3h-1.1c-0.3,0-0.4-0.1-0.2-0.4l0.9-1.7c0.1-0.3,0.3-0.4,0.6-0.4h1.5c0.3,0,0.4,0.2,0.2,0.4
		L350.1,261.3z"/>
	<path id="Path_93" class="st3" d="M274.1,291.7c0,1.4-0.9,2.7-3.9,2.7s-3.9-1.3-3.9-2.7v-6.8c0-1.4,0.9-2.7,3.9-2.7
		s3.9,1.3,3.9,2.7v0.9c0,0.2-0.1,0.3-0.3,0.3h-1c-0.2,0-0.3-0.1-0.3-0.3v-0.6c0-1-0.6-1.5-2.2-1.5s-2.2,0.6-2.2,1.5v6.2
		c0,1,0.6,1.5,2.2,1.5s2.2-0.6,2.2-1.5v-0.8c0-0.2,0.1-0.3,0.3-0.3h1c0.2,0,0.3,0.1,0.3,0.3"/>
	<path id="Path_94" class="st3" d="M283,294.3c-0.2,0-0.3-0.1-0.3-0.3v-11.2c0-0.2,0.1-0.4,0.3-0.4h6c0.2,0,0.3,0.1,0.3,0.3v0.8
		c0,0.2-0.1,0.3-0.3,0.3h-4.6v3.5h4.3c0.2,0,0.3,0.1,0.3,0.3v0.8c0,0.2-0.1,0.3-0.3,0.3h-4.3v4h4.8c0.2,0,0.3,0.1,0.3,0.3v0.8
		c0,0.2-0.1,0.3-0.3,0.3"/>
	<path id="Path_95" class="st3" d="M305.6,294c0,0.2-0.1,0.3-0.3,0.3h-1c-0.1,0-0.3,0-0.3-0.2l-4.1-7.2c-0.2-0.4-0.4-0.8-0.6-1.3
		v8.3c0,0.2-0.1,0.3-0.3,0.3h-1c-0.2,0-0.3-0.1-0.3-0.3v-11.3c0-0.2,0.1-0.3,0.3-0.3h1c0.1,0,0.2,0,0.3,0.1l4.2,7.4
		c0.2,0.4,0.5,1.1,0.5,1.1v-8.3c0-0.2,0.1-0.3,0.3-0.3h1c0.2,0,0.3,0.1,0.3,0.3"/>
	<path id="Path_96" class="st3" d="M321.1,282.4c0.2,0,0.3,0.1,0.3,0.3v0.8c0,0.2-0.1,0.3-0.3,0.3h-2.8v10.1c0,0.2-0.1,0.3-0.3,0.3
		h-1.1c-0.2,0-0.3-0.1-0.3-0.3v-10.1h-2.8c-0.2,0-0.3-0.1-0.3-0.3v-0.8c0-0.2,0.1-0.3,0.3-0.3"/>
	<path id="Path_97" class="st3" d="M331.2,289.6v4.4c0,0.2-0.1,0.3-0.3,0.3h-1.1c-0.2,0-0.3-0.1-0.3-0.3v-11.2
		c0-0.2,0.1-0.4,0.3-0.4h3.6c3,0,4,1.3,4,2.7v1.8c0,1.2-0.9,2.3-2.1,2.5l2.1,4.6c0.1,0.2-0.1,0.3-0.3,0.3H336
		c-0.2,0-0.3-0.1-0.4-0.3l-2-4.4h-0.3 M331.2,283.8v4.3h2.2c1.6,0,2.3-0.6,2.3-1.5v-1.2c0-0.9-0.7-1.5-2.3-1.5L331.2,283.8
		L331.2,283.8z"/>
	<path id="Path_98" class="st3" d="M345,284.9c0-1.4,1-2.7,4-2.7s4,1.3,4,2.7v6.8c0,1.4-1,2.7-4,2.7s-4-1.3-4-2.7 M351.3,285.2
		c0-0.9-0.7-1.5-2.3-1.5c-1.6,0-2.3,0.6-2.3,1.5v6.2c0,0.9,0.7,1.5,2.3,1.5c1.6,0,2.3-0.6,2.3-1.5V285.2z"/>
	<path id="Path_99" class="st3" d="M377,294.3c-0.2,0-0.3-0.1-0.3-0.3v-11.2c0-0.2,0.1-0.4,0.3-0.4h3.7c3,0,4,1.3,4,2.7v6.5
		c0,1.4-1,2.7-4,2.7 M378.5,283.8v9h2.3c1.6,0,2.3-0.6,2.3-1.5v-6c0-0.9-0.7-1.5-2.3-1.5H378.5z"/>
	<path id="Path_100" class="st3" d="M393.6,294.3c-0.2,0-0.3-0.1-0.3-0.3v-11.2c0-0.2,0.1-0.4,0.3-0.4h6c0.2,0,0.3,0.1,0.3,0.3v0.8
		c0,0.2-0.1,0.3-0.3,0.3H395v3.5h4.3c0.2,0,0.3,0.1,0.3,0.3v0.8c0,0.2-0.1,0.3-0.3,0.3H395v4h4.8c0.2,0,0.3,0.1,0.3,0.3v0.8
		c0,0.2-0.1,0.3-0.3,0.3"/>
	<path id="Path_101" class="st3" d="M460.2,322.2c0.2,0,0.4,0.1,0.4,0.3l3.4,11.2c0.1,0.2,0,0.3-0.3,0.3h-1.1
		c-0.2,0-0.4-0.1-0.4-0.3l-0.8-2.7h-3.7l-0.8,2.7c0,0.2-0.2,0.3-0.4,0.3h-1c-0.2,0-0.3-0.1-0.2-0.3l3.4-11.2c0-0.2,0.2-0.3,0.4-0.3
		 M460.1,326.5c-0.2-0.8-0.4-1.7-0.5-2.6c0,0.2-0.3,1.8-0.5,2.5l-1,3.2h2.9L460.1,326.5z"/>
	<path id="Path_102" class="st3" d="M273.7,342.1c0.2,0,0.3,0.1,0.3,0.3v0.8c0,0.2-0.1,0.3-0.3,0.3h-2.8v10.1c0,0.2-0.1,0.3-0.3,0.3
		h-1.1c-0.2,0-0.3-0.1-0.3-0.3v-10.1h-2.8c-0.2,0-0.3-0.1-0.3-0.3v-0.8c0-0.2,0.1-0.3,0.3-0.3"/>
	<path id="Path_103" class="st3" d="M283,354c-0.2,0-0.3-0.1-0.3-0.3v-11.2c0-0.2,0.1-0.3,0.3-0.3h6c0.2,0,0.3,0.1,0.3,0.3v0.8
		c0,0.2-0.1,0.3-0.3,0.3h-4.6v3.5h4.3c0.2,0,0.3,0.1,0.3,0.3v0.8c0,0.2-0.1,0.3-0.3,0.3h-4.3v4h4.8c0.2,0,0.3,0.1,0.3,0.3v0.8
		c0,0.2-0.1,0.3-0.3,0.3"/>
	<path id="Path_104" class="st3" d="M305.7,351.4c0,1.4-0.9,2.7-3.9,2.7s-3.9-1.3-3.9-2.7v-6.8c0-1.4,0.9-2.7,3.9-2.7
		s3.9,1.3,3.9,2.7v0.9c0,0.2-0.1,0.3-0.3,0.3h-1c-0.2,0-0.3-0.1-0.3-0.3v-0.6c0-1-0.6-1.5-2.2-1.5s-2.2,0.6-2.2,1.5v6.2
		c0,1,0.6,1.5,2.2,1.5s2.2-0.6,2.2-1.5v-0.8c0-0.2,0.1-0.3,0.3-0.3h1c0.2,0,0.3,0.1,0.3,0.3"/>
	<path id="Path_105" class="st3" d="M321.4,353.6c0,0.2-0.1,0.3-0.3,0.3h-1c-0.1,0-0.3,0-0.3-0.2l-4.1-7.2c-0.2-0.4-0.4-0.8-0.6-1.3
		v8.3c0,0.2-0.1,0.3-0.3,0.3h-1c-0.2,0-0.3-0.1-0.3-0.3v-11.2c0-0.2,0.1-0.3,0.3-0.3h1c0.1,0,0.2,0,0.3,0.1l4.2,7.4
		c0.2,0.4,0.5,1.1,0.5,1.1v-8.3c0-0.2,0.1-0.3,0.3-0.3h1c0.2,0,0.3,0.1,0.3,0.3"/>
	<path id="Path_106" class="st3" d="M329.2,344.6c0-1.4,1-2.7,4-2.7s4,1.3,4,2.7v6.8c0,1.4-1,2.7-4,2.7s-4-1.3-4-2.7 M335.5,344.9
		c0-0.9-0.7-1.5-2.3-1.5c-1.6,0-2.3,0.6-2.3,1.5v6.2c0,0.9,0.7,1.5,2.3,1.5c1.6,0,2.3-0.6,2.3-1.5V344.9z"/>
	<path id="Path_107" class="st3" d="M347.9,352.5h4.5c0.2,0,0.3,0.1,0.3,0.3v0.8c0,0.2-0.1,0.3-0.3,0.3h-5.9c-0.2,0-0.3-0.1-0.3-0.3
		v-11.2c0-0.2,0.1-0.3,0.3-0.3h1.1c0.2,0,0.3,0.1,0.3,0.3"/>
	<path id="Path_108" class="st3" d="M360.8,344.6c0-1.4,1-2.7,4-2.7s4,1.3,4,2.7v6.8c0,1.4-1,2.7-4,2.7s-4-1.3-4-2.7 M367.1,344.9
		c0-0.9-0.7-1.5-2.3-1.5c-1.6,0-2.3,0.6-2.3,1.5v6.2c0,0.9,0.7,1.5,2.3,1.5c1.6,0,2.3-0.6,2.3-1.5V344.9z M365.4,340.9
		c-0.1,0.1-0.3,0.2-0.4,0.2h-0.8c-0.2,0-0.3-0.1-0.2-0.3l1-1.9c0.1-0.2,0.3-0.3,0.5-0.3h1.1c0.2,0,0.3,0.1,0.2,0.3L365.4,340.9z"/>
	<path id="Path_109" class="st3" d="M384.3,348c0.2,0,0.3,0.1,0.3,0.3v3.1c0,1.4-0.9,2.7-3.9,2.7s-3.9-1.3-3.9-2.7v-6.8
		c0-1.4,0.9-2.7,3.9-2.7s3.9,1.3,3.9,2.7v0.8c0,0.2-0.1,0.3-0.3,0.3h-1c-0.2,0-0.3-0.1-0.3-0.3v-0.5c0-1-0.6-1.5-2.2-1.5
		s-2.2,0.6-2.2,1.5v6.2c0,1,0.6,1.5,2.2,1.5s2.2-0.6,2.2-1.5v-1.7h-2.1c-0.2,0-0.3-0.1-0.3-0.3v-0.8c0-0.2,0.1-0.3,0.3-0.3"/>
	<path id="Path_110" class="st3" d="M397.3,353.6c0,0.2-0.1,0.3-0.3,0.3h-1.1c-0.2,0-0.3-0.1-0.3-0.3v-11.2c0-0.2,0.1-0.3,0.3-0.3
		h1.1c0.2,0,0.3,0.1,0.3,0.3"/>
	<path id="Path_111" class="st3" d="M416.3,351.4c0,1.4-0.9,2.7-3.9,2.7s-3.9-1.3-3.9-2.7v-6.8c0-1.4,0.9-2.7,3.9-2.7
		s3.9,1.3,3.9,2.7v0.9c0,0.2-0.1,0.3-0.3,0.3h-1c-0.2,0-0.3-0.1-0.3-0.3v-0.6c0-1-0.6-1.5-2.2-1.5s-2.2,0.6-2.2,1.5v6.2
		c0,1,0.6,1.5,2.2,1.5s2.2-0.6,2.2-1.5v-0.8c0-0.2,0.1-0.3,0.3-0.3h1c0.2,0,0.3,0.1,0.3,0.3"/>
	<path id="Path_112" class="st3" d="M428.6,342.1c0.2,0,0.4,0.1,0.4,0.3l3.4,11.2c0.1,0.2,0,0.3-0.3,0.3H431c-0.2,0-0.3-0.1-0.4-0.3
		l-0.8-2.7h-3.7l-0.8,2.7c0,0.2-0.2,0.3-0.4,0.3h-1c-0.2,0-0.3-0.1-0.2-0.3l3.4-11.2c0-0.2,0.2-0.3,0.4-0.3 M428.5,346.4
		c-0.2-0.8-0.4-1.7-0.5-2.6c0,0.2-0.3,1.8-0.5,2.5l-1,3.2h2.9L428.5,346.4z"/>
	<path id="Path_113" class="st3" d="M270.9,313.8c0,0.2-0.1,0.3-0.3,0.3h-1.1c-0.2,0-0.3-0.1-0.3-0.3v-11.2c0-0.2,0.1-0.3,0.3-0.3
		h1.1c0.2,0,0.3,0.1,0.3,0.3"/>
	<path id="Path_114" class="st3" d="M289.8,313.9c0,0.2-0.1,0.3-0.3,0.3h-1c-0.1,0-0.3,0-0.3-0.2l-4.1-7.2c-0.2-0.4-0.4-0.8-0.6-1.3
		v8.3c0,0.2-0.1,0.3-0.3,0.3h-1c-0.2,0-0.3-0.1-0.3-0.3v-11.2c0-0.2,0.1-0.3,0.3-0.3h1c0.1,0,0.2,0,0.3,0.1l4.2,7.4
		c0.2,0.4,0.5,1.1,0.5,1.1v-8.3c0-0.2,0.1-0.3,0.3-0.3h1c0.2,0,0.3,0.1,0.3,0.3"/>
	<path id="Path_115" class="st3" d="M305.6,313.9c0,0.2-0.1,0.3-0.3,0.3h-1c-0.1,0-0.3,0-0.3-0.2l-4.1-7.2c-0.2-0.4-0.4-0.8-0.6-1.3
		v8.3c0,0.2-0.1,0.3-0.3,0.3h-1c-0.2,0-0.3-0.1-0.3-0.3v-11.2c0-0.2,0.1-0.3,0.3-0.3h1c0.1,0,0.2,0,0.3,0.1l4.2,7.4
		c0.2,0.4,0.5,1.1,0.5,1.1v-8.3c0-0.2,0.1-0.3,0.3-0.3h1c0.2,0,0.3,0.1,0.3,0.3"/>
	<path id="Path_116" class="st3" d="M313.4,304.8c0-1.4,1-2.7,4-2.7s4,1.3,4,2.7v6.8c0,1.4-1,2.7-4,2.7s-4-1.3-4-2.7 M319.7,305.1
		c0-0.9-0.7-1.5-2.3-1.5c-1.6,0-2.3,0.6-2.3,1.5v6.2c0,0.9,0.7,1.5,2.3,1.5c1.6,0,2.3-0.6,2.3-1.5V305.1z"/>
	<path id="Path_117" class="st3" d="M332.7,314.2c-0.2,0-0.4-0.1-0.4-0.3l-3.4-11.2c-0.1-0.2,0-0.3,0.2-0.3h1.2
		c0.2,0,0.3,0.1,0.4,0.3l2.2,7.3c0.2,0.7,0.3,1.4,0.4,2.1c0,0,0.2-1.5,0.4-2.1l2.2-7.3c0.1-0.2,0.2-0.3,0.4-0.3h1.1
		c0.2,0,0.3,0.1,0.3,0.3l-3.4,11.2c0,0.2-0.2,0.3-0.4,0.3"/>
	<path id="Path_118" class="st3" d="M349.6,302.3c0.2,0,0.4,0.1,0.4,0.3l3.4,11.2c0.1,0.2,0,0.3-0.3,0.3H352c-0.2,0-0.4-0.1-0.4-0.3
		l-0.8-2.7h-3.7l-0.8,2.7c0,0.2-0.2,0.3-0.4,0.3h-1c-0.2,0-0.3-0.1-0.2-0.3l3.4-11.2c0-0.2,0.2-0.3,0.4-0.3 M349.5,306.6
		c-0.2-0.8-0.4-1.7-0.5-2.6c0,0.2-0.3,1.8-0.5,2.5l-1,3.2h2.9L349.5,306.6z"/>
	<path id="Path_119" class="st3" d="M368.9,311.6c0,1.4-0.9,2.7-3.9,2.7s-3.9-1.3-3.9-2.7v-6.8c0-1.4,0.9-2.7,3.9-2.7
		s3.9,1.3,3.9,2.7v0.9c0,0.2-0.1,0.3-0.3,0.3h-1c-0.2,0-0.3-0.1-0.3-0.3v-0.6c0-0.9-0.6-1.5-2.2-1.5s-2.2,0.6-2.2,1.5v6.2
		c0,0.9,0.6,1.5,2.2,1.5s2.2-0.6,2.2-1.5v-0.8c0-0.2,0.1-0.3,0.3-0.3h1c0.2,0,0.3,0.1,0.3,0.3"/>
	<path id="Path_120" class="st3" d="M381.5,313.8c0,0.2-0.1,0.3-0.3,0.3h-1.1c-0.2,0-0.3-0.1-0.3-0.3v-11.2c0-0.2,0.1-0.3,0.3-0.3
		h1.1c0.2,0,0.3,0.1,0.3,0.3"/>
	<path id="Path_121" class="st3" d="M392.5,304.8c0-1.4,1-2.7,4-2.7s4,1.3,4,2.7v6.8c0,1.4-1,2.7-4,2.7s-4-1.3-4-2.7 M398.7,305.1
		c0-0.9-0.7-1.5-2.3-1.5c-1.6,0-2.3,0.6-2.3,1.5v6.2c0,0.9,0.7,1.5,2.3,1.5c1.6,0,2.3-0.6,2.3-1.5V305.1z M397,301.1
		c-0.1,0.1-0.3,0.2-0.4,0.2h-0.8c-0.2,0-0.3-0.1-0.2-0.3l1-1.9c0.1-0.2,0.3-0.3,0.5-0.3h1.1c0.2,0,0.3,0.1,0.2,0.3L397,301.1z"/>
	<path id="Path_122" class="st3" d="M416.2,313.9c0,0.2-0.1,0.3-0.3,0.3h-1c-0.1,0-0.3,0-0.3-0.2l-4.1-7.2c-0.2-0.4-0.4-0.8-0.6-1.3
		v8.3c0,0.2-0.1,0.3-0.3,0.3h-1c-0.2,0-0.3-0.1-0.3-0.3v-11.2c0-0.2,0.1-0.3,0.3-0.3h1c0.1,0,0.2,0,0.3,0.1l4.2,7.4
		c0.2,0.4,0.5,1.1,0.5,1.1v-8.3c0-0.2,0.1-0.3,0.3-0.3h1c0.2,0,0.3,0.1,0.3,0.3"/>
	<path id="Path_123" class="st3" d="M443.6,307.2c0.1,0.2,0.3,0.7,0.3,0.8c0.1-0.3,0.2-0.5,0.3-0.8l2.3-4.6c0.1-0.2,0.2-0.3,0.4-0.3
		h1.1c0.2,0,0.3,0.1,0.2,0.3l-3.4,6.8v4.4c0,0.2-0.1,0.3-0.3,0.3h-1.1c-0.2,0-0.3-0.1-0.3-0.3v-4.2l-3.5-7c-0.1-0.2,0-0.3,0.2-0.3
		h1.2c0.2,0,0.3,0.1,0.4,0.3"/>
	<path id="Path_124" class="st3" d="M273.7,322.2c0.2,0,0.3,0.1,0.3,0.3v0.8c0,0.2-0.1,0.3-0.3,0.3h-2.8v10.1c0,0.2-0.1,0.3-0.3,0.3
		h-1.1c-0.2,0-0.3-0.1-0.3-0.3v-10.1h-2.8c-0.2,0-0.3-0.1-0.3-0.3v-0.8c0-0.2,0.1-0.3,0.3-0.3"/>
	<path id="Path_125" class="st3" d="M283.8,329.4v4.4c0,0.2-0.1,0.3-0.3,0.3h-1.1c-0.2,0-0.3-0.1-0.3-0.3v-11.2
		c0-0.2,0.1-0.3,0.3-0.3h3.6c3,0,4,1.3,4,2.7v1.8c0,1.2-0.9,2.3-2.1,2.5l2.1,4.6c0.1,0.2-0.1,0.3-0.3,0.3h-1.1
		c-0.2,0-0.3-0.1-0.4-0.3l-2-4.4h-0.3 M283.8,323.6v4.3h2.2c1.6,0,2.3-0.6,2.3-1.5v-1.2c0-0.9-0.7-1.5-2.3-1.5L283.8,323.6z"/>
	<path id="Path_126" class="st3" d="M302.2,322.2c0.2,0,0.4,0.1,0.4,0.3l3.4,11.2c0.1,0.2,0,0.3-0.3,0.3h-1.1
		c-0.2,0-0.4-0.1-0.4-0.3l-0.8-2.7h-3.7l-0.8,2.7c0,0.2-0.2,0.3-0.4,0.3h-1c-0.2,0-0.3-0.1-0.2-0.3l3.4-11.2c0-0.2,0.2-0.3,0.4-0.3
		 M302.1,326.5c-0.2-0.8-0.4-1.7-0.5-2.6c0,0.2-0.3,1.8-0.5,2.5l-1,3.2h2.9L302.1,326.5z"/>
	<path id="Path_127" class="st3" d="M321.4,333.7c0,0.2-0.1,0.3-0.3,0.3h-1c-0.1,0-0.3,0-0.3-0.2l-4.1-7.2c-0.2-0.4-0.4-0.8-0.6-1.3
		v8.3c0,0.2-0.1,0.3-0.3,0.3h-1c-0.2,0-0.3-0.1-0.3-0.3v-11.2c0-0.2,0.1-0.3,0.3-0.3h1c0.1,0,0.2,0,0.3,0.1l4.2,7.4
		c0.2,0.4,0.5,1.1,0.5,1.1v-8.3c0-0.2,0.1-0.3,0.3-0.3h1c0.2,0,0.3,0.1,0.3,0.3"/>
	<path id="Path_128" class="st3" d="M335.4,324.9c0-0.9-0.6-1.5-2.1-1.5s-2.1,0.5-2.1,1.5v0.3c0,0.6,0.4,1,0.9,1.2l3.2,1.2
		c1.1,0.3,1.9,1.2,1.9,2.4v1.5c0,1.4-1,2.7-3.9,2.7s-3.9-1.3-3.9-2.7v-1c0-0.2,0.1-0.3,0.3-0.3h1c0.2,0,0.3,0.1,0.3,0.3v0.8
		c0,0.9,0.7,1.5,2.2,1.5s2.3-0.5,2.3-1.5v-0.8c0-0.9-0.8-1.2-1.5-1.4l-3-1.1c-0.9-0.3-1.5-1.2-1.6-2.2v-1c0-1.4,0.9-2.7,3.8-2.7
		s3.8,1.3,3.8,2.7v0.8c0,0.2-0.1,0.3-0.3,0.3h-1c-0.2,0-0.3-0.1-0.3-0.3"/>
	<path id="Path_129" class="st3" d="M352.6,322.2c0.2,0,0.3,0.1,0.3,0.3v0.8c0,0.2-0.1,0.3-0.3,0.3h-5v3.6h4.7
		c0.2,0,0.3,0.1,0.3,0.3v0.8c0,0.2-0.1,0.3-0.3,0.3h-4.7v5.1c0,0.2-0.1,0.3-0.3,0.3h-1.1c-0.2,0-0.3-0.1-0.3-0.3v-11.2
		c0-0.2,0.1-0.3,0.3-0.3"/>
	<path id="Path_130" class="st3" d="M362,334.1c-0.2,0-0.3-0.1-0.3-0.3v-11.2c0-0.2,0.1-0.3,0.3-0.3h6c0.2,0,0.3,0.1,0.3,0.3v0.8
		c0,0.2-0.1,0.3-0.3,0.3h-4.6v3.5h4.3c0.2,0,0.4,0.1,0.4,0.3v0.8c0,0.2-0.1,0.3-0.4,0.3h-4.3v4h4.8c0.2,0,0.3,0.1,0.3,0.3v0.8
		c0,0.2-0.1,0.3-0.3,0.3"/>
	<path id="Path_131" class="st3" d="M378.6,329.4v4.4c0,0.2-0.1,0.3-0.3,0.3h-1.1c-0.2,0-0.3-0.1-0.3-0.3v-11.2
		c0-0.2,0.1-0.3,0.3-0.3h3.6c3,0,4,1.3,4,2.7v1.8c0,1.2-0.9,2.3-2.1,2.5l2.1,4.6c0.1,0.2-0.1,0.3-0.3,0.3h-1.1
		c-0.2,0-0.3-0.1-0.4-0.3l-2-4.4h-0.3 M378.6,323.6v4.3h2.2c1.6,0,2.3-0.6,2.3-1.5v-1.2c0-0.9-0.7-1.5-2.3-1.5L378.6,323.6z"/>
	<path id="Path_132" class="st3" d="M393.6,334.1c-0.2,0-0.3-0.1-0.3-0.3v-11.2c0-0.2,0.1-0.3,0.3-0.3h6c0.2,0,0.3,0.1,0.3,0.3v0.8
		c0,0.2-0.1,0.3-0.3,0.3H395v3.5h4.3c0.2,0,0.3,0.1,0.3,0.3v0.8c0,0.2-0.1,0.3-0.3,0.3H395v4h4.8c0.2,0,0.3,0.1,0.3,0.3v0.8
		c0,0.2-0.1,0.3-0.3,0.3"/>
	<path id="Path_133" class="st3" d="M416.2,333.7c0,0.2-0.1,0.3-0.3,0.3h-1c-0.1,0-0.3,0-0.3-0.2l-4.1-7.2c-0.2-0.4-0.4-0.8-0.6-1.3
		v8.3c0,0.2-0.1,0.3-0.3,0.3h-1c-0.2,0-0.3-0.1-0.3-0.3v-11.2c0-0.2,0.1-0.3,0.3-0.3h1c0.1,0,0.2,0,0.3,0.1l4.2,7.4
		c0.2,0.4,0.4,0.7,0.5,1.1v-8.3c0-0.2,0.1-0.3,0.3-0.3h1c0.2,0,0.3,0.1,0.3,0.3"/>
	<path id="Path_134" class="st3" d="M432.1,331.5c0,1.4-0.9,2.7-3.9,2.7s-3.9-1.3-3.9-2.7v-6.8c0-1.4,0.9-2.7,3.9-2.7
		s3.9,1.3,3.9,2.7v0.9c0,0.2-0.1,0.3-0.3,0.3h-1c-0.2,0-0.3-0.1-0.3-0.3V325c0-0.9-0.6-1.5-2.2-1.5s-2.2,0.6-2.2,1.5v6.2
		c0,0.9,0.6,1.5,2.2,1.5s2.2-0.6,2.2-1.5v-0.8c0-0.2,0.1-0.3,0.3-0.3h1c0.2,0,0.3,0.1,0.3,0.3"/>
	<path id="Path_135" class="st3" d="M444.7,333.7c0,0.2-0.1,0.3-0.3,0.3h-1.1c-0.2,0-0.3-0.1-0.3-0.3v-11.2c0-0.2,0.1-0.3,0.3-0.3
		h1.1c0.2,0,0.3,0.1,0.3,0.3"/>
</g>
</svg>
