<?xml version="1.0" encoding="utf-8"?>
<!-- Generator: Adobe Illustrator 23.0.3, SVG Export Plug-In . SVG Version: 6.00 Build 0)  -->
<svg version="1.1" id="Layer_1" xmlns="http://www.w3.org/2000/svg" xmlns:xlink="http://www.w3.org/1999/xlink" x="0px" y="0px"
	 viewBox="0 0 480 480" style="enable-background:new 0 0 480 480;" xml:space="preserve">
<style type="text/css">
	.st0{fill:#E46E5D;}
</style>
<path id="Path_136" class="st0" d="M359,230.4c-2.4-2.7-6-4.1-9.6-3.8c-1.6,0.1-3.1,0.5-4.5,1.3c-1.2,0.6-2.3,1.5-3.2,2.5
	c-2.2,2.3-3.2,5.4-3,8.5c0.3,6.2,5.5,11,11.6,10.9c6.4-0.1,11.6-5.3,11.6-11.8C361.8,235.2,360.8,232.5,359,230.4"/>
<path id="Path_137" class="st0" d="M323.5,213.6c-0.7-0.6-1.4-1.2-2.1-1.7c-0.1-0.1-0.1-0.1-0.2-0.2c-0.2-0.1-0.4-0.3-0.5-0.4
	l-0.1-0.1c-3.3-2.2-6.9-3.8-10.8-4.8h-0.1c-0.5-0.1-1-0.3-1.5-0.4c-1.4-0.3-2.7-0.7-4-1c-0.2-0.1-0.5-0.1-0.8-0.2h-0.1
	c-7.3-1.6-13-2.9-13-6.4c0-2.8,3-5,7.3-5.4c4.7-0.5,9.1,1,13.4,4.4c0.6,0.6,2.2,2,2.8,2.7l0,0c0.1,0.1,0.1,0.1,0.2,0.1s0.1,0,0.2,0
	l0,0l10.1-7.9l1.6-1.3l0.9-0.7l0,0c0.1-0.1,0.2-0.3,0.1-0.4l0,0l0,0l0,0l0,0c-0.9-1.1-1.9-2.2-2.8-3.1c-0.3-0.3-0.6-0.6-0.8-0.9
	c-2.5-2.7-5.5-5-8.9-6.5c-1.1-0.5-2.1-0.9-3.2-1.3c-3.9-1.3-8-2-12.1-2c-0.2,0-0.3,0-0.5,0c-0.1,0-0.2,0-0.3,0c-0.5,0-1,0-1.4,0
	h-0.1c-0.5,0-1,0.1-1.5,0.1c-8.9,1-16.4,5.4-20.5,11.3c-1.3,1.9-2.3,4-2.9,6.2c-0.2,0.8-0.3,1.6-0.4,2.4c0,0.1,0,0.1,0,0.2
	s0,0.1,0,0.2c-0.1,0.7-0.2,1.4-0.2,2.2c0,1.8,0.3,3.5,0.9,5.2c0.9,2.5,2.3,4.7,4.2,6.6c3.5,3.5,7.8,6.2,12.5,7.7l2.3,0.7
	c1.2,0.4,5.8,1.3,7.7,1.8c2.5,0.6,4.9,1.4,7.3,2.3c3,1.2,4.9,2.7,4.9,5c0,0.5-0.1,1-0.3,1.5c-0.1,0.3-0.2,0.5-0.4,0.8
	c-0.1,0.2-0.2,0.3-0.3,0.4c-0.5,0.8-1.3,1.4-2.2,1.8l0.1-0.1c-2.9,1.5-7.3,2.1-12,1.5c-2.4-0.3-4.7-0.9-7-1.8c-3-1.3-5.7-3.1-8-5.4
	c-0.2-0.2-0.3-0.3-0.5-0.5c-0.1-0.1-0.1-0.1-0.2-0.1s-0.1,0-0.2,0.1l0,0l-9.8,7.7l-2.3,1.8l-0.1,0.1l0,0l0,0
	c-0.1,0.1-0.2,0.3-0.1,0.4l0,0l0,0c0.4,0.5,0.8,0.9,1.2,1.4c3.3,3.8,7.2,6.8,11.6,9.1c5,2.6,10.6,4,16.3,4.2c0.3,0,0.5,0,0.8,0
	c0.2,0,0.3,0,0.5,0c12.3,0,23-5.1,28.4-12.4c2.3-3.1,3.6-6.8,3.6-10.6C330.2,222.4,327.6,217.5,323.5,213.6"/>
<path id="Path_138" class="st0" d="M211.8,203.5c4.5-8.8,15.2-12.3,24-7.8c3.4,1.7,6.1,4.5,7.8,7.8H211.8z M238.5,177.6
	c-3.5-1.1-7.1-1.6-10.8-1.7c-20.1,0.1-36.4,16.5-36.3,36.6c0,5.2,1.1,10.3,3.3,15.1c1.1,2.6,2.6,5,4.3,7.2c3.8,5.2,8.9,9.4,14.9,12
	c0.1,0.1,0.2,0.1,0.4,0.2c0.2,0.1,0.4,0.2,0.6,0.3c4.3,1.8,9,2.8,13.7,2.8h0.2h0.2c11.3,0,22-5.1,29-14l0,0l0.1-0.1
	c0-0.1,0-0.1-0.1-0.2l-12.4-9.6c-0.1-0.1-0.3-0.1-0.4,0l0,0l0,0c-3.6,3-7.9,5-12.6,5.6c-0.8,0.1-1.7,0.1-2.6,0.2
	c-2.5,0-5.1-0.4-7.5-1.1c-3.7-1.4-7-3.8-9.3-6.9c-0.9-1.3-1.6-2.7-2.2-4.2c-0.1-0.2-0.1-0.4-0.2-0.7h51.4c0.1,0,0.3-0.1,0.3-0.2
	c1.9-11.6-0.8-22.4-7.6-30.5C250.5,183.3,244.8,179.6,238.5,177.6"/>
<path id="Path_139" class="st0" d="M187.7,178.1L187.7,178.1h-18.1l0,0c-0.2,0-0.4,0.2-0.5,0.4l0,0c-2.7,16.7-6.4,29.9-11.1,40.5
	c-1.3,2.9-2.8,5.8-4.4,8.6l-0.6,0.9l-0.6-0.9c-2.5-4-4.7-8.1-6.5-12.4c-1.6-3.6-3-7.2-4.1-11c-2.6-8.3-4.4-16.8-5.2-25.5l0,0
	c0-0.3-0.3-0.6-0.7-0.6h-17.3c-0.4,0-0.7,0.3-0.7,0.7c0,0.1,0,0.1,0,0.2c0.2,2.1,0.4,4.1,0.7,6.2c2.5,19.7,9,38.2,18.9,53.5
	c0.8,1.3,2.4,3.7,2.5,3.8l0.3,0.5l-0.5,0.4c-5.4,4.2-11.7,7.2-18.4,8.8h-0.2c-1.2,0.3-2.4,0.5-3.6,0.7l0,0l-0.1,0.1v18.1
	c0,0.1,0.1,0.1,0.1,0.1l0,0c10.5-0.6,20.5-4.1,29.2-10.1c0.7-0.5,1.4-0.9,1.9-1.3c1-0.7,2.1-1.5,3.2-2.4c5.1-4.2,9.6-9,13.4-14.4
	c10.9-15.3,18.5-36.9,22.7-64.2l0,0c0.1-0.2-0.1-0.5-0.4-0.5C187.7,178.1,187.7,178.1,187.7,178.1"/>
</svg>
