<svg id="Layer_1" data-name="Layer 1" xmlns="http://www.w3.org/2000/svg" viewBox="0 0 595.28 841.89"><defs><style>.cls-1,.cls-31{font-size:10px;fill:#231f20;font-family:Lato-Regular, Lato;}.cls-2{fill:none;stroke:#000;stroke-miterlimit:10;}.cls-3{fill:#dfa092;}.cls-4{fill:#a41e22;}.cls-5{fill:#6a4119;}.cls-6{fill:#95796e;}.cls-7{fill:#5a7333;}.cls-8{fill:#7aa74f;}.cls-9{fill:#c5de8c;}.cls-10{fill:#e7c598;}.cls-11{fill:#fcbd7a;}.cls-12{fill:#5b8994;}.cls-13{letter-spacing:-0.01em;}.cls-14{letter-spacing:-0.01em;}.cls-15{letter-spacing:0em;}.cls-16{letter-spacing:-0.01em;}.cls-17{letter-spacing:-0.01em;}.cls-18{letter-spacing:0em;}.cls-19{letter-spacing:-0.03em;}.cls-20{letter-spacing:-0.02em;}.cls-21{letter-spacing:0em;}.cls-22{letter-spacing:-0.02em;}.cls-23{letter-spacing:-0.01em;}.cls-24{letter-spacing:0em;}.cls-25{letter-spacing:-0.01em;}.cls-26{letter-spacing:0em;}.cls-27{letter-spacing:-0.02em;}.cls-28{letter-spacing:-0.01em;}.cls-29{letter-spacing:-0.01em;}.cls-30,.cls-31{letter-spacing:0em;}.cls-32{letter-spacing:0em;}.cls-33{letter-spacing:-0.01em;}</style></defs><title>Artboard 1</title><text class="cls-1" transform="translate(89.15 356.91)">0</text><text class="cls-1" transform="translate(153.94 356.91)">20</text><text class="cls-1" transform="translate(221.62 356.91)">40</text><text class="cls-1" transform="translate(289.31 356.91)">60</text><text class="cls-1" transform="translate(356.99 356.91)">80</text><text class="cls-1" transform="translate(421.78 356.91)">100</text><line class="cls-2" x1="92.05" y1="339.96" x2="430.48" y2="339.96"/><line class="cls-2" x1="92.05" y1="339.96" x2="92.05" y2="331.87"/><line class="cls-2" x1="159.74" y1="339.96" x2="159.74" y2="331.87"/><line class="cls-2" x1="227.42" y1="339.96" x2="227.42" y2="331.87"/><line class="cls-2" x1="295.11" y1="339.96" x2="295.11" y2="331.87"/><line class="cls-2" x1="362.79" y1="339.96" x2="362.79" y2="331.87"/><line class="cls-2" x1="430.48" y1="339.96" x2="430.48" y2="331.87"/><line class="cls-2" x1="92.05" y1="339.96" x2="92.05" y2="16.43"/><line class="cls-2" x1="92.05" y1="178.19" x2="100.51" y2="178.19"/><rect class="cls-3" x="455.63" y="16.43" width="42.3" height="32.35"/><rect class="cls-3" x="335.72" y="61.72" width="91.37" height="232.94"/><rect class="cls-4" x="455.63" y="64.96" width="42.3" height="32.35"/><rect class="cls-4" x="278.19" y="61.72" width="57.53" height="232.94"/><rect class="cls-5" x="455.63" y="113.49" width="42.3" height="32.35"/><rect class="cls-5" x="237.58" y="61.72" width="40.61" height="232.94"/><rect class="cls-6" x="455.63" y="162.01" width="42.3" height="32.35"/><rect class="cls-6" x="203.73" y="61.72" width="33.84" height="232.94"/><rect class="cls-7" x="455.63" y="210.54" width="42.3" height="32.35"/><rect class="cls-7" x="173.28" y="61.72" width="30.46" height="232.94"/><rect class="cls-8" x="455.63" y="259.07" width="42.3" height="32.35"/><rect class="cls-8" x="146.2" y="61.72" width="27.07" height="232.94"/><rect class="cls-9" x="455.63" y="307.6" width="42.3" height="32.35"/><rect class="cls-9" x="125.9" y="61.72" width="20.31" height="232.94"/><rect class="cls-10" x="455.63" y="356.13" width="42.3" height="32.35"/><rect class="cls-10" x="112.36" y="61.72" width="13.54" height="232.94"/><rect class="cls-11" x="455.63" y="404.66" width="42.3" height="32.35"/><rect class="cls-11" x="98.82" y="61.72" width="13.54" height="232.94"/><rect class="cls-12" x="455.63" y="453.19" width="42.3" height="32.35"/><rect class="cls-12" x="92.05" y="61.72" width="6.77" height="232.94"/><text class="cls-1" transform="translate(503.22 38.55)"><tspan class="cls-13">C</tspan><tspan x="6.58" y="0">old cut 27%</tspan></text><text class="cls-1" transform="translate(503.22 87.08)"><tspan class="cls-14">B</tspan><tspan class="cls-15" x="6.36" y="0">u</tspan><tspan class="cls-16" x="11.93" y="0">r</tspan><tspan class="cls-17" x="15.46" y="0">g</tspan><tspan x="20.58" y="0">e</tspan><tspan class="cls-18" x="25.86" y="0">r</tspan><tspan x="29.47" y="0">s 17%</tspan></text><text class="cls-1" transform="translate(503.22 135.61)"><tspan class="cls-19">P</tspan><tspan x="5.74" y="0">oultr</tspan><tspan class="cls-20" x="26.57" y="0">y</tspan><tspan class="cls-21" x="31.48" y="0" xml:space="preserve"> 12%</tspan></text><text class="cls-1" transform="translate(503.22 184.14)"><tspan class="cls-22">H</tspan><tspan class="cls-23" x="7.48" y="0">o</tspan><tspan x="13.06" y="0">td</tspan><tspan class="cls-24" x="22.25" y="0">o</tspan><tspan x="27.89" y="0">g/</tspan><tspan class="cls-25" x="37.61" y="0">S</tspan><tspan x="42.96" y="0">ausa</tspan><tspan class="cls-17" x="62.81" y="0">g</tspan><tspan x="67.93" y="0">es 10%</tspan></text><text class="cls-1" transform="translate(503.22 232.67)"><tspan class="cls-26">O</tspan><tspan class="cls-15" x="7.99" y="0">the</tspan><tspan class="cls-27" x="22.43" y="0">r</tspan><tspan class="cls-21" x="25.86" y="0" xml:space="preserve"> me</tspan><tspan class="cls-28" x="41.92" y="0">a</tspan><tspan x="46.83" y="0">t 9%</tspan></text><text class="cls-1" transform="translate(503.22 281.2)"><tspan class="cls-29">E</tspan><tspan class="cls-30" x="5.63" y="0">g</tspan><tspan x="10.81" y="0">g 8%</tspan></text><text class="cls-1" transform="translate(503.22 329.73)"><tspan class="cls-19">P</tspan><tspan x="5.74" y="0">eanut bu</tspan><tspan class="cls-24" x="44.46" y="0">tt</tspan><tspan x="51.27" y="0">e</tspan><tspan class="cls-27" x="56.55" y="0">r</tspan><tspan class="cls-21" x="59.98" y="0" xml:space="preserve"> 6%</tspan></text><text class="cls-31" transform="translate(503.22 378.26)">F<tspan class="cls-32" x="5.63" y="0">ish 4%</tspan></text><text class="cls-1" transform="translate(503.22 426.79)">Cheese 4%</text><text class="cls-1" transform="translate(503.22 475.32)"><tspan class="cls-22">N</tspan><tspan class="cls-15" x="7.48" y="0">on-me</tspan><tspan class="cls-33" x="35.95" y="0">a</tspan><tspan x="40.85" y="0">t 2%</tspan></text></svg>